<?xml version="1.0" encoding="UTF-8" standalone="no"?>
<!-- Created with Inkscape (http://www.inkscape.org/) -->

<svg
   xmlns:dc="http://purl.org/dc/elements/1.1/"
   xmlns:cc="http://creativecommons.org/ns#"
   xmlns:rdf="http://www.w3.org/1999/02/22-rdf-syntax-ns#"
   xmlns:svg="http://www.w3.org/2000/svg"
   xmlns="http://www.w3.org/2000/svg"
   xmlns:xlink="http://www.w3.org/1999/xlink"
   xmlns:sodipodi="http://sodipodi.sourceforge.net/DTD/sodipodi-0.dtd"
   xmlns:inkscape="http://www.inkscape.org/namespaces/inkscape"
   version="1.0"
   width="1000"
   height="320"
   id="svg2619"
   inkscape:version="0.48.5 r10040"
   sodipodi:docname="Linux_Mint_Official_Logo.svg">
  <metadata
     id="metadata71">
    <rdf:RDF>
      <cc:Work
         rdf:about="">
        <dc:format>image/svg+xml</dc:format>
        <dc:type
           rdf:resource="http://purl.org/dc/dcmitype/StillImage" />
      </cc:Work>
    </rdf:RDF>
  </metadata>
  <sodipodi:namedview
     pagecolor="#ffffff"
     bordercolor="#666666"
     borderopacity="1"
     objecttolerance="10"
     gridtolerance="10"
     guidetolerance="10"
     inkscape:pageopacity="0"
     inkscape:pageshadow="2"
     inkscape:window-width="1366"
     inkscape:window-height="702"
     id="namedview69"
     showgrid="false"
     inkscape:zoom="0.778"
     inkscape:cx="500"
     inkscape:cy="160"
     inkscape:window-x="0"
     inkscape:window-y="27"
     inkscape:window-maximized="1"
     inkscape:current-layer="svg2619" />
  <title
     id="title3079">Linux Mint Official Logo</title>
  <defs
     id="defs2621">
    <linearGradient
       id="linearGradient3431">
      <stop
         id="stop3433"
         style="stop-color:#3d3d3d;stop-opacity:1"
         offset="0" />
      <stop
         id="stop3435"
         style="stop-color:#000000;stop-opacity:0.11400651"
         offset="1" />
    </linearGradient>
    <linearGradient
       id="linearGradient3312">
      <stop
         id="stop3314"
         style="stop-color:#c7f994;stop-opacity:1"
         offset="0" />
      <stop
         id="stop3316"
         style="stop-color:#87cf3e;stop-opacity:1"
         offset="1" />
    </linearGradient>
    <filter
       color-interpolation-filters="sRGB"
       id="filter3291">
      <feGaussianBlur
         id="feGaussianBlur3293"
         stdDeviation="0.400625" />
    </filter>
    <filter
       color-interpolation-filters="sRGB"
       id="filter3546">
      <feGaussianBlur
         id="feGaussianBlur3548"
         stdDeviation="0.15992437" />
    </filter>
    <linearGradient
       x1="70.491508"
       y1="416.38858"
       x2="113.64215"
       y2="375.87961"
       id="linearGradient4136"
       xlink:href="#linearGradient3431"
       gradientUnits="userSpaceOnUse"
       gradientTransform="translate(0,80)"
       spreadMethod="pad" />
    <filter
       color-interpolation-filters="sRGB"
       id="filter3469">
      <feGaussianBlur
         id="feGaussianBlur3471"
         stdDeviation="2.7119931" />
    </filter>
    <linearGradient
       x1="61.42857"
       y1="362.14285"
       x2="116.42857"
       y2="408.57144"
       id="linearGradient3538"
       xlink:href="#linearGradient3312"
       gradientUnits="userSpaceOnUse"
       gradientTransform="matrix(1.091261,0,0,1.091261,196.35071,-38.224469)" />
    <filter
       color-interpolation-filters="sRGB"
       id="filter3573">
      <feGaussianBlur
         id="feGaussianBlur3575"
         stdDeviation="1.6284922" />
    </filter>
    <filter
       color-interpolation-filters="sRGB"
       id="filter3965">
      <feGaussianBlur
         id="feGaussianBlur3967"
         stdDeviation="2.4743396" />
    </filter>
    <filter
       color-interpolation-filters="sRGB"
       id="filter4006">
      <feGaussianBlur
         id="feGaussianBlur4008"
         stdDeviation="1.6495597" />
    </filter>
    <filter
       color-interpolation-filters="sRGB"
       id="filter4135">
      <feGaussianBlur
         id="feGaussianBlur4137"
         stdDeviation="0.74662361" />
    </filter>
    <linearGradient
       inkscape:collect="always"
       xlink:href="#linearGradient3312"
       id="linearGradient3089"
       gradientUnits="userSpaceOnUse"
       gradientTransform="matrix(1.091261,0,0,1.091261,196.35071,-38.224469)"
       x1="61.42857"
       y1="362.14285"
       x2="116.42857"
       y2="408.57144" />
    <linearGradient
       inkscape:collect="always"
       xlink:href="#linearGradient3431"
       id="linearGradient3091"
       gradientUnits="userSpaceOnUse"
       gradientTransform="translate(0,80)"
       spreadMethod="pad"
       x1="70.491508"
       y1="416.38858"
       x2="113.64215"
       y2="375.87961" />
    <linearGradient
       inkscape:collect="always"
       xlink:href="#linearGradient3312"
       id="linearGradient3099"
       gradientUnits="userSpaceOnUse"
       gradientTransform="matrix(2.684162,0,0,2.684162,-92.436546,-920.39022)"
       x1="61.42857"
       y1="362.14285"
       x2="116.42857"
       y2="408.57144" />
    <linearGradient
       inkscape:collect="always"
       xlink:href="#linearGradient3312"
       id="linearGradient3157"
       gradientUnits="userSpaceOnUse"
       gradientTransform="matrix(2.684162,0,0,2.684162,-92.436546,-920.39022)"
       x1="61.42857"
       y1="362.14285"
       x2="116.42857"
       y2="408.57144" />
    <linearGradient
       inkscape:collect="always"
       xlink:href="#linearGradient3431"
       id="linearGradient3159"
       gradientUnits="userSpaceOnUse"
       gradientTransform="translate(0,80)"
       spreadMethod="pad"
       x1="70.491508"
       y1="416.38858"
       x2="113.64215"
       y2="375.87961" />
  </defs>
  <text
     sodipodi:linespacing="100%"
     style="font-size:19.75634766px;font-style:normal;font-variant:normal;font-weight:normal;font-stretch:normal;text-align:start;line-height:100%;writing-mode:lr-tb;text-anchor:start;fill:#ffffff;fill-opacity:1;stroke:none;font-family:Skia"
     xml:space="preserve"
     id="text2972"
     transform="scale(1.1483401,0.87082218)"
     y="965.80756"
     x="324.05295"><tspan
       id="tspan2976"
       y="965.80756"
       x="324.05295">freedom for the masses</tspan></text>
  <g
     id="g3137"
     transform="translate(8,14)">
    <path
       inkscape:connector-curvature="0"
       style="font-size:19.75634766px;font-style:normal;font-variant:normal;font-weight:normal;font-stretch:normal;text-align:start;line-height:100%;writing-mode:lr-tb;text-anchor:start;fill:#666666;fill-opacity:1;stroke:none;font-family:Skia"
       id="path3671"
       d="m 391.23193,233.50197 c -1.8685,2e-5 -3.48331,0.19186 -4.84251,0.69179 -1.31699,0.48436 -2.45711,1.18264 -3.30521,1.99849 -0.93817,0.91272 -1.60711,1.89583 -1.99849,2.99775 -0.38101,1.05725 -0.53816,2.24636 -0.53806,3.5358 l 0,0.15373 -3.5358,0 -0.84552,0 0,0.84552 0,2.38282 0,0.84552 0.84552,0 3.5358,0 c -0.002,4.38799 -0.0492,8.43122 -0.0767,11.83725 -0.0298,3.63877 -3e-5,5.50596 0,5.7649 l 0,0.84551 0.84552,0 3.5358,0 0.84552,0 0,-0.84551 c 0,-0.25844 -0.0472,-2.26882 -0.0768,-6.07236 -0.0147,-3.55509 9.9e-4,-7.42651 0,-11.52979 l 6.68728,0 0.92238,0 0,-0.84552 0,-2.38282 0,-0.84552 -0.92238,0 -6.68728,0 0,-0.0767 c 0,-0.84124 0.09,-1.59041 0.30746,-2.22909 0.229,-0.64712 0.56426,-1.07233 0.92239,-1.38358 0.54846,-0.48372 1.16269,-0.8006 1.84476,-0.99925 0.67283,-0.19579 1.72725,-0.3843 3.07461,-0.38432 0.10208,2e-5 0.24747,0 0.38433,0 l 0,0.15373 1.15298,-0.15373 0.38433,0 0,-0.0767 0.15373,0 -0.15373,-0.84552 0,-0.76866 -0.0768,0 -0.30746,-1.92163 -0.15373,-0.69178 -0.69178,0 c -0.0885,2e-5 -0.27084,2e-5 -0.53806,0 -0.25229,2e-5 -0.4988,2e-5 -0.69179,0 z m 111.5315,0 c -1.86848,2e-5 -3.48329,0.19186 -4.84251,0.69179 -1.31699,0.48436 -2.45708,1.18266 -3.30521,1.99849 -0.93813,0.91272 -1.60706,1.89583 -1.9985,2.99775 -0.38098,1.05725 -0.53805,2.24641 -0.53805,3.5358 l 0,0.15373 -3.53581,0 -0.84551,0 0,0.84552 0,2.38282 0,0.84552 0.84551,0 3.53581,0 c -0.002,4.38796 -0.0492,8.43122 -0.0768,11.83725 -0.0298,3.63877 -0.0767,5.5068 -0.0767,5.7649 l 0,0.84551 0.92238,0 3.45894,0 0.92238,0 0,-0.84551 c 0,-0.25842 -0.0472,-2.26882 -0.0767,-6.07236 -0.0148,-3.55509 9.6e-4,-7.42651 0,-11.52979 l 6.68728,0 0.84552,0 0,-0.84552 0,-2.38282 0,-0.84552 -0.84552,0 -6.68728,0 0,-0.0767 c 0,-0.84121 0.09,-1.59039 0.30746,-2.22909 0.229,-0.6471 0.56423,-1.07233 0.92239,-1.38358 0.54848,-0.48374 1.08583,-0.80063 1.7679,-0.99925 0.67289,-0.19603 1.72724,-0.3843 3.07461,-0.38432 0.10208,2e-5 0.24749,0 0.38432,0 l 0,0.15373 1.15298,-0.15373 0.4612,0 0,-0.0767 0.15373,0 -0.15373,-0.84552 0,-0.76866 -0.15374,0 -0.30746,-1.92163 -0.0767,-0.69178 -0.76865,0 c -0.0885,2e-5 -0.27089,2e-5 -0.53806,0 -0.25226,2e-5 -0.42196,2e-5 -0.61492,0 z m 82.24583,0 0,0.84552 0.0767,8.76264 c -1.35829,0.0418 -2.75576,0.0612 -4.15072,0.30746 -1.68964,0.28417 -3.19688,0.72428 -4.53505,1.30671 -2.27128,0.9563 -4.05758,2.30741 -5.30371,4.07386 -1.24504,1.74999 -1.84476,3.82813 -1.84476,6.07235 0,1.94963 0.57141,3.78967 1.69103,5.38057 1.12708,1.60165 2.75746,2.83831 4.84251,3.7664 1.58439,0.70401 3.24977,1.15261 4.91938,1.38357 1.66044,0.244 3.85792,0.38433 6.68728,0.38433 0.29605,0 0.67304,0.0148 1.15298,0 0.47501,0 0.7567,-2e-5 0.84552,0 l 0.84551,0 0,-0.0767 0,-0.84552 c -0.002,-0.23834 0.002,-0.59436 0,-0.84552 -0.0147,-1.5301 -0.0514,-3.14422 -0.0767,-5.14997 -0.0148,-2.34571 -5e-5,-4.94456 0,-7.84026 -2e-5,-3.66378 -0.0298,-7.34733 0,-10.91486 0.0298,-3.57014 0.0767,-5.4595 0.0767,-5.7649 l 0,-0.84552 -0.84551,0 -3.53581,0 -0.84551,0 z m 231.05698,0 0.0767,0.84552 c 0.0445,3.09987 -2e-5,5.96132 0,8.45518 0.0148,2.48416 0.077,4.5179 0.0767,6.14922 0,2.5368 -0.0472,5.75127 -0.0767,9.60816 -0.007,1.92177 0.007,3.38094 0,4.38132 -0.005,0.5002 0.002,0.88511 0,1.15297 -0.002,0.26786 -0.01,0.48569 0,0.38433 l -0.15373,0.92238 0.99925,0 2.61342,0 0.92238,0 0.84552,0 0,-0.84551 c 0,-0.0357 8.8e-4,-0.7277 0,-0.84552 -0.005,-0.56785 -0.0524,-1.49247 -0.0767,-4.07386 -0.0298,-3.1132 4e-5,-6.75649 0,-10.91487 0,-1.90633 -0.0148,-4.22223 0,-6.99474 0.0147,-2.7854 0.0472,-5.26776 0.0767,-7.37906 l 0,-0.84552 -0.84552,0 -3.5358,0 -0.92239,0 z m -406.38665,8.76264 -0.84551,0.15373 c -1.04881,0.24988 -2.34244,0.72962 -3.997,1.38357 -1.26273,0.49908 -2.55817,1.1337 -3.84326,1.76791 l 0,-1.84477 0,-0.84552 -0.84552,0 -3.45893,0 -0.84552,0 0,0.84552 c 0.0295,2.02951 0.062,4.16578 0.0767,6.45668 0.0148,2.29201 0,4.10694 0,5.38057 0,3.15536 0.0293,5.39867 0,6.68728 -0.0298,1.30553 -0.077,2.03588 -0.0767,2.30596 l 0,0.84551 0.84552,0 3.5358,0 0.84552,0 0,-0.84551 c 0,-0.29893 -0.0322,-1.46453 -0.0768,-3.68954 -0.0295,-2.22154 -5e-5,-4.14993 0,-5.76489 -2e-5,-1.05322 -0.0147,-2.23989 0,-3.45894 0.01,-0.82412 -0.002,-1.03887 0,-1.38357 1.97031,-0.85061 3.70946,-1.63056 5.22684,-2.15223 1.29771,-0.44223 2.09479,-0.72354 2.84402,-0.92238 l 0.38432,-0.0768 c 0.1097,-0.0271 0.36706,-0.13306 0.46119,-0.15373 l 0.84552,-0.15373 -0.15373,-0.84551 -0.23047,-0.84552 -0.46119,-2.07536 -0.23048,-0.76866 z m 111.5315,0 -0.84552,0.15373 c -1.04873,0.24988 -2.34243,0.72962 -3.99699,1.38357 -1.26271,0.49908 -2.55815,1.1337 -3.84326,1.76791 l 0,-1.84477 0,-0.84552 -0.84552,0 -3.45894,0 -0.92238,0 0.0767,0.84552 c 0.0298,2.02949 0.062,4.16578 0.0767,6.45668 0.0148,2.29201 -2e-5,4.10694 0,5.38057 0,3.15539 -0.0475,5.39875 -0.0767,6.68728 -0.0298,1.30555 3e-5,2.03623 0,2.30596 l 0,0.84551 0.84552,0 3.5358,0 0.84552,0 0,-0.84551 c 0,-0.29881 -0.0322,-1.4645 -0.0767,-3.68954 -0.0295,-2.22151 -0.0767,-4.14991 -0.0767,-5.76489 0,-1.05324 0.062,-2.23992 0.0767,-3.45894 0.01,-0.86987 -0.002,-1.12336 0,-1.46044 1.93046,-0.83123 3.73452,-1.56229 5.22683,-2.07536 1.29769,-0.44223 2.09477,-0.72354 2.84402,-0.92238 l 0.38432,-0.0768 c 0.10971,-0.0271 0.36704,-0.13306 0.4612,-0.15373 l 0.84551,-0.15373 -0.23047,-0.84551 -0.15373,-0.84552 -0.46119,-2.07536 -0.23047,-0.76866 z m -98.08007,0.0767 c -1.57143,3e-5 -3.0357,0.2837 -4.45819,0.84552 -1.42335,0.54735 -2.68937,1.34196 -3.7664,2.38282 -1.1943,1.13419 -2.10829,2.39269 -2.69028,3.84327 -0.56253,1.42725 -0.84552,3.01533 -0.84552,4.68878 0,1.74082 0.34743,3.4228 0.99925,4.99624 0.66886,1.57627 1.61855,2.90821 2.84401,3.99699 1.05964,0.93557 2.2686,1.66371 3.61267,2.15223 1.34385,0.47351 2.79091,0.69176 4.30446,0.69179 1.59992,0 3.07989,-0.1953 4.38132,-0.69179 1.29933,-0.48963 2.48099,-1.22094 3.5358,-2.15223 1.25232,-1.11384 2.18833,-2.50583 2.84401,-4.07386 0.54379,-1.26949 0.74435,-2.62962 0.84552,-3.99699 l 0.15373,0 0,-0.92238 0,-0.84552 -0.15373,0 c -0.0858,-1.37733 -0.20243,-2.7214 -0.69179,-3.92013 -0.59613,-1.47544 -1.55988,-2.75925 -2.76715,-3.92013 -1.0617,-1.02667 -2.24124,-1.7985 -3.61266,-2.30596 -1.35815,-0.52342 -2.90197,-0.76862 -4.53505,-0.76865 z m 28.28641,0 c -1.31775,3e-5 -2.79442,0.32286 -4.38132,0.99925 -1.0144,0.43664 -1.73354,0.93252 -2.53655,1.38358 l 0,-0.99925 0,-0.84552 -0.84552,0 -3.45894,0 -0.92238,0 0,0.84552 c 0.0445,2.41241 0.0767,4.55482 0.0767,6.45668 0.0148,1.90727 0.0768,3.48983 0.0768,4.61191 0,3.44394 -0.0475,5.89551 -0.0768,7.37907 -0.0298,1.48331 -0.077,2.19321 -0.0767,2.38282 l 0,0.84552 0.92238,0 3.45894,0 0.92238,0 0,-0.84552 c -5e-5,-0.22949 -0.0322,-1.33305 -0.0767,-3.61266 -0.0298,-2.29042 -0.077,-4.28992 -0.0767,-5.91863 0,-0.9567 -0.0148,-2.18096 0,-3.68953 0.0123,-1.25575 0.0748,-1.76495 0.0767,-2.15223 1.19888,-0.67491 2.30306,-1.249 3.22834,-1.61417 l 0.0768,0 c 1.04396,-0.42489 1.86173,-0.61492 2.53655,-0.61492 0.83583,0 1.45879,0.16873 1.7679,0.30746 0.35469,0.14906 0.62171,0.3093 0.84552,0.61492 0.19628,0.26739 0.37687,0.63062 0.46119,1.07611 0.0944,0.50003 0.13996,1.05297 0.15373,1.61418 0.0148,0.64547 0,1.67713 0,3.07461 0.0148,1.38532 -2e-5,2.39426 0,3.07461 0,2.05546 0.0295,3.801 0,5.3037 -0.0298,1.51096 -0.0767,2.32888 -0.0767,2.53655 l 0,0.84552 0.84552,0 3.5358,0 0.84552,0 0,-0.84552 c -5e-5,-0.22949 -0.0322,-0.98422 -0.0768,-2.53655 -0.0295,-1.54348 0,-3.48934 0,-5.7649 -2e-5,-1.03939 -0.0148,-2.09213 0,-3.22834 0.0148,-1.15694 0,-2.26606 0,-3.38207 -2e-5,-0.25676 0.01,-0.49516 0,-0.69179 1.16646,-0.6205 2.31656,-1.15679 3.22834,-1.46044 1.06962,-0.35146 1.92732,-0.53805 2.61342,-0.53805 1.24916,0 2.02442,0.27091 2.45969,0.69179 0.40339,0.38144 0.80398,1.30953 0.84552,2.84401 0.0148,0.68807 -3e-5,1.74025 0,3.15148 0.0148,1.39924 0,2.3868 0,2.99774 -3e-5,1.55986 0.0295,3.22925 0,4.99624 -0.007,0.88453 -0.0694,1.59851 -0.0767,2.07536 -0.007,0.47686 -0.007,0.84169 0,0.76866 l -0.0768,0.92238 0.92239,0 2.69028,0 0.84552,0 0.84552,0 0,-0.84552 c -3e-5,-0.075 0.005,-0.64097 0,-0.84552 -0.01,-0.40963 -0.0472,-0.62832 -0.0767,-1.69103 -0.0295,-1.58497 -5e-5,-3.53873 0,-5.84176 -5e-5,-1.10829 -0.0148,-2.16765 0,-3.15148 0.03,-1.01464 0.0767,-2.22825 0.0767,-3.68953 -5e-5,-2.0577 -0.66269,-3.80575 -1.9985,-5.07311 -1.32725,-1.29143 -3.17632,-1.9216 -5.38057,-1.92163 -1.15381,3e-5 -2.49766,0.23958 -3.99699,0.76865 -1.32459,0.47224 -2.77918,1.2345 -4.30446,2.07537 -0.49941,-0.71016 -1.01599,-1.44541 -1.84476,-1.92163 -1.12752,-0.65787 -2.43123,-0.92236 -3.997,-0.92239 z m 82.55329,0 c -1.49982,3e-5 -2.97853,0.2231 -4.38132,0.76865 -1.3969,0.54955 -2.56887,1.352 -3.5358,2.38283 l -0.0767,0 c -1.07417,1.15435 -1.83623,2.47528 -2.38282,3.84326 -0.55014,1.37698 -0.84555,2.87725 -0.84552,4.53505 -3e-5,1.7131 0.34335,3.3347 1.07611,4.76565 0.72497,1.38497 1.63434,2.54226 2.69029,3.45893 1.23225,1.09486 2.7717,1.93074 4.61191,2.53656 1.87281,0.59687 4.01362,0.84549 6.45668,0.84552 0.91853,0 1.76781,0.0426 2.45969,0 0.67174,-0.0276 0.99293,-0.0494 1.22985,-0.0768 l 0.61492,-0.0767 0.15373,-0.69179 0.38433,-2.69028 0.15373,-1.07611 -1.07612,0.0767 c -0.13085,0.01 -0.59593,0.0357 -1.30671,0.0767 -0.6773,0.0401 -1.39693,0.0767 -2.22909,0.0767 -1.49783,0 -2.82911,-0.15619 -3.84326,-0.38432 -1.02545,-0.24351 -1.91175,-0.61672 -2.69029,-1.07612 -1.23902,-0.73048 -2.11759,-1.55393 -2.69028,-2.61342 -0.43992,-0.82306 -0.49772,-1.8226 -0.61492,-2.76715 l 14.14321,0 0.84551,0 0.84552,0 0,-0.92238 0,-0.84552 -0.15373,0 c -0.0799,-1.47387 -0.20022,-2.84603 -0.61492,-3.99699 -0.49742,-1.39518 -1.1809,-2.63802 -2.15223,-3.61267 -0.87493,-0.87036 -1.971,-1.49694 -3.15147,-1.92163 -1.17989,-0.42439 -2.45972,-0.6149 -3.92013,-0.61492 z m 23.21331,0 c -1.49982,3e-5 -2.97858,0.2231 -4.38132,0.76865 -1.39695,0.54957 -2.56887,1.35202 -3.5358,2.38283 -1.07419,1.15435 -1.91312,2.47528 -2.45969,3.84326 -0.55013,1.37698 -0.76867,2.87725 -0.76865,4.53505 0,1.7131 0.34332,3.33467 1.07611,4.76565 0.725,1.38495 1.63427,2.54223 2.69029,3.45893 1.23223,1.09486 2.77172,1.93074 4.61191,2.53656 1.87281,0.59687 4.01363,0.84549 6.45669,0.84552 0.91852,0 1.69101,0.0426 2.38282,0 0.67176,-0.0276 0.99288,-0.0494 1.22984,-0.0768 l 0.69179,-0.0767 0.0767,-0.69179 0.38433,-2.69028 0.15373,-1.07611 -1.07611,0.0767 c -0.13061,0.01 -0.59591,0.0357 -1.30671,0.0767 -0.67725,0.0401 -1.39701,0.0767 -2.2291,0.0767 -1.49782,0 -2.75221,-0.15619 -3.76639,-0.38432 -1.02545,-0.24351 -1.91185,-0.61675 -2.69029,-1.07612 -1.23904,-0.73048 -2.11759,-1.55393 -2.69028,-2.61342 -0.44058,-0.82431 -0.57488,-1.82095 -0.69179,-2.76715 l 14.14321,0 0.84552,0 0.92238,0 0,-0.92238 0,-0.84552 -0.15373,0 c -0.0799,-1.47389 -0.20022,-2.84605 -0.61492,-3.99699 -0.49747,-1.39516 -1.25772,-2.63802 -2.2291,-3.61267 -0.87496,-0.87033 -1.89413,-1.49694 -3.07461,-1.92163 -1.17988,-0.42442 -2.53665,-0.6149 -3.99699,-0.61492 z m 49.27064,0 c -1.57145,3e-5 -3.11252,0.2837 -4.53505,0.84552 -1.4233,0.54735 -2.6894,1.34196 -3.7664,2.38282 -1.1943,1.13419 -2.03141,2.39269 -2.61342,3.84327 -0.56253,1.42728 -0.84547,3.01535 -0.84552,4.68878 0,1.74084 0.27064,3.42283 0.92238,4.99624 l 0.0767,0 c 0.66891,1.57629 1.61864,2.90824 2.84401,3.99699 1.05961,0.93557 2.26855,1.66371 3.61267,2.15223 1.34383,0.47351 2.79093,0.69176 4.30445,0.69179 1.59996,0 3.00306,-0.1953 4.30446,-0.69179 1.29935,-0.48963 2.48101,-1.22094 3.5358,-2.15223 1.25233,-1.11384 2.26523,-2.5058 2.92088,-4.07386 0.54379,-1.26949 0.74438,-2.62962 0.84552,-3.99699 l 0.15373,0 0,-0.92238 0,-0.84552 -0.15373,0 c -0.0856,-1.37834 -0.2791,-2.72064 -0.76865,-3.92013 -0.59616,-1.47542 -1.483,-2.75923 -2.69029,-3.92013 -1.0617,-1.02667 -2.31806,-1.7985 -3.68953,-2.30596 -1.35814,-0.52342 -2.82513,-0.76862 -4.45819,-0.76865 z m 28.20955,0 c -1.31778,3e-5 -2.71756,0.32286 -4.30446,0.99925 -0.99883,0.42995 -1.74269,0.93972 -2.53655,1.38358 l 0,-0.99925 0,-0.84552 -0.92238,0 -3.45894,0 -0.84552,0 0,0.84552 c 0.0445,2.41241 0.0767,4.55485 0.0767,6.45668 0.0148,1.90724 -2e-5,3.48976 0,4.61191 0,3.44396 0.0295,5.89553 0,7.37907 -0.0298,1.48331 -0.0767,2.19547 -0.0767,2.38282 l 0,0.84552 0.84552,0 3.5358,0 0.84552,0 0,-0.84552 c -5e-5,-0.22924 -0.0322,-1.33305 -0.0767,-3.61266 -0.0298,-2.29039 0,-4.2899 0,-5.91863 0,-0.95672 -0.0148,-2.18101 0,-3.68953 0.0123,-1.21066 -0.002,-1.67242 0,-2.07536 1.24089,-0.7033 2.35353,-1.31545 3.3052,-1.69104 1.04399,-0.42489 1.93858,-0.61492 2.61342,-0.61492 0.83583,0 1.45872,0.16873 1.7679,0.30746 0.35469,0.14906 0.62164,0.30926 0.84552,0.61492 0.19628,0.26744 0.30003,0.63066 0.38433,1.07611 0.0947,0.49999 0.13995,1.05297 0.15373,1.61418 0.0148,0.64534 0.0767,1.67711 0.0767,3.07461 0.0148,1.38534 -5e-5,2.39421 0,3.07461 -2e-5,2.05548 -0.0472,3.80108 -0.0767,5.3037 -0.0298,1.51096 -3e-5,2.32866 0,2.53655 l 0,0.84552 0.84552,0 3.5358,0 0.84552,0 0,-0.84552 c -5e-5,-0.22973 -0.0322,-0.98424 -0.0767,-2.53655 -0.0295,-1.54348 -2e-5,-3.48934 0,-5.7649 -2e-5,-1.03944 -0.0148,-2.09218 0,-3.22834 0.0148,-1.15696 -5e-5,-2.26611 0,-3.38207 -2e-5,-0.25681 0.01,-0.49526 0,-0.69179 1.16285,-0.61809 2.24203,-1.15757 3.15148,-1.46044 1.0696,-0.35146 2.00413,-0.53805 2.69028,-0.53805 1.24916,0 2.02435,0.27086 2.45969,0.69179 0.40339,0.38147 0.72714,1.30956 0.76866,2.84401 0.0147,0.68805 -5e-5,1.74023 0,3.15148 0.0147,1.39921 0.0767,2.38668 0.0767,2.99774 -3e-5,1.55986 -0.0472,3.22928 -0.0767,4.99624 -0.007,0.88456 0.007,1.59851 0,2.07536 -0.007,0.47686 -0.007,0.84156 0,0.76866 l -0.15374,0.92238 0.99925,0 2.61342,0 0.92239,0 0.84551,0 0,-0.84552 c -2e-5,-0.0745 0.005,-0.64102 0,-0.84552 -0.01,-0.40958 -0.0472,-0.62832 -0.0767,-1.69103 -0.0295,-1.58495 -0.0767,-3.53871 -0.0767,-5.84176 0,-1.10836 0.062,-2.16775 0.0767,-3.15148 0.03,-1.01464 0,-2.22825 0,-3.68953 0,-2.0577 -0.66264,-3.80575 -1.9985,-5.07311 -1.32722,-1.29143 -3.17629,-1.9216 -5.38056,-1.92163 -1.15382,3e-5 -2.42083,0.23958 -3.92013,0.76865 -1.32459,0.47224 -2.77916,1.2345 -4.30446,2.07537 -0.49941,-0.71016 -1.016,-1.44541 -1.84476,-1.92163 -1.12755,-0.65787 -2.50815,-0.92236 -4.07386,-0.92239 z m 95.46665,0 c -1.31777,3e-5 -2.71753,0.32286 -4.30445,0.99925 -0.99883,0.42995 -1.74271,0.93972 -2.53655,1.38358 l 0,-0.99925 0,-0.84552 -0.84552,0 -3.5358,0 -0.84552,0 0,0.84552 c 0.0445,2.41241 0.0767,4.55482 0.0767,6.45668 0.0148,1.90727 0,3.48983 0,4.61191 0,3.44396 0.0295,5.89556 0,7.37907 -0.0298,1.48331 -0.077,2.19306 -0.0767,2.38282 l 0,0.84552 0.84552,0 3.5358,0 0.84552,0 0,-0.84552 c 0,-0.23022 -0.0322,-1.33303 -0.0767,-3.61266 -0.0298,-2.29042 -2e-5,-4.28995 0,-5.91863 0,-0.95672 -0.0148,-2.18098 0,-3.68953 0.0123,-1.21064 -0.002,-1.6723 0,-2.07536 1.24092,-0.7033 2.35356,-1.31545 3.30521,-1.69104 1.04394,-0.42489 1.93858,-0.61492 2.61342,-0.61492 0.83583,0 1.45859,0.16873 1.7679,0.30746 0.35466,0.14906 0.62156,0.30921 0.84552,0.61492 0.19628,0.26742 0.29998,0.63062 0.38432,1.07611 0.0947,0.49996 0.2167,1.05297 0.23048,1.61418 0.0148,0.64542 -8e-5,1.67711 0,3.07461 0.0148,1.38532 -3e-5,2.39423 0,3.07461 0,2.05548 0.0295,3.80108 0,5.3037 -0.0298,1.51096 -0.077,2.32726 -0.0767,2.53655 l 0,0.84552 0.84552,0 3.5358,0 0.84552,0 0,-0.84552 c -5e-5,-0.22949 -0.0322,-0.98422 -0.0767,-2.53655 -0.0295,-1.54346 5e-5,-3.48934 0,-5.7649 -2e-5,-1.03941 -0.0148,-2.09216 0,-3.22834 0.0148,-1.15691 2e-5,-2.26603 0,-3.38207 -2e-5,-0.25684 0.01,-0.49521 0,-0.69179 1.16651,-0.6205 2.31653,-1.15679 3.22834,-1.46044 1.0696,-0.35146 1.92729,-0.53805 2.61342,-0.53805 1.24915,0 2.02442,0.27091 2.45969,0.69179 0.40336,0.38147 0.72718,1.30958 0.76865,2.84401 0.0148,0.6881 0.077,1.7403 0.0767,3.15148 0.0148,1.39916 -9e-5,2.38653 0,2.99774 -7e-5,1.55989 -0.0472,3.22928 -0.0767,4.99624 -0.007,0.88453 0.007,1.59853 0,2.07536 -0.007,0.47684 -0.007,0.84287 0,0.76866 l -0.0767,0.92238 0.92238,0 2.69029,0 0.84551,0 0.84552,0 0,-0.84552 c 0,-0.0755 0.005,-0.64094 0,-0.84552 -0.01,-0.40971 -0.0472,-0.62835 -0.0767,-1.69103 -0.0295,-1.58493 -0.0767,-3.53868 -0.0767,-5.84176 -3e-5,-1.10836 0.062,-2.1678 0.0767,-3.15148 0.03,-1.01457 0,-2.2282 0,-3.68953 -5e-5,-2.05773 -0.66274,-3.80575 -1.9985,-5.07311 -1.32725,-1.29143 -3.17636,-1.9216 -5.38057,-1.92163 -1.15384,3e-5 -2.4208,0.23958 -3.92012,0.76865 -1.32452,0.47222 -2.77918,1.2345 -4.30446,2.07537 -0.49941,-0.71019 -1.0161,-1.44541 -1.84476,-1.92163 -1.12758,-0.65787 -2.5082,-0.92236 -4.07386,-0.92239 z m 36.89533,0 c -1.49979,3e-5 -2.97851,0.2231 -4.38132,0.76865 -1.39691,0.54955 -2.5689,1.35197 -3.5358,2.38283 -1.07417,1.15433 -1.91315,2.47523 -2.45969,3.84326 -0.55013,1.37701 -0.84549,2.8773 -0.84552,4.53505 0,1.7131 0.42022,3.3347 1.15298,4.76565 0.72494,1.38497 1.55743,2.54226 2.61342,3.45893 1.23221,1.09486 2.77168,1.93074 4.61192,2.53656 l 0.0767,0 c 1.8728,0.59687 4.01367,0.84549 6.45668,0.84552 0.91852,0 1.69104,0.0426 2.38282,0 0.67174,-0.0276 0.99283,-0.0494 1.22985,-0.0768 l 0.69178,-0.0767 0.0768,-0.69179 0.38432,-2.69028 0.15373,-1.07611 -1.07611,0.0767 c -0.13086,0.01 -0.59596,0.0357 -1.30671,0.0767 -0.6773,0.0401 -1.39691,0.0767 -2.22909,0.0767 -1.49785,0 -2.75234,-0.15619 -3.7664,-0.38432 -1.02539,-0.24351 -1.91169,-0.61672 -2.69028,-1.07612 -1.23902,-0.73048 -2.11757,-1.55391 -2.69029,-2.61342 -0.44058,-0.82431 -0.57488,-1.82095 -0.69179,-2.76715 l 14.14321,0 0.84552,0 0.92238,0 0,-0.92238 0,-0.84552 -0.15373,0 c -0.0799,-1.47387 -0.20022,-2.846 -0.61492,-3.99699 -0.49745,-1.39516 -1.25776,-2.63802 -2.22909,-3.61267 -0.87496,-0.87036 -1.89413,-1.49694 -3.07461,-1.92163 -1.17987,-0.42442 -2.53658,-0.6149 -3.997,-0.61492 z m 34.66623,0 c -1.49984,3e-5 -2.97858,0.2231 -4.38132,0.76865 -1.39695,0.54957 -2.56885,1.35202 -3.5358,2.38283 -1.07417,1.15435 -1.91312,2.47528 -2.45969,3.84326 -0.55013,1.37701 -0.84544,2.8773 -0.84551,4.53505 0,1.71313 0.34347,3.33475 1.07611,4.76565 0.72499,1.38495 1.63431,2.54226 2.69028,3.45893 1.23226,1.09486 2.77173,1.93074 4.61192,2.53656 1.87278,0.59687 4.09056,0.84549 6.53355,0.84552 0.91852,0 1.69093,0.0426 2.38282,0 0.67174,-0.0276 0.99273,-0.0494 1.22984,-0.0768 l 0.61493,-0.0767 0.15373,-0.69179 0.38432,-2.69028 0.15373,-1.07611 -1.07611,0.0767 c -0.13086,0.01 -0.59588,0.0357 -1.30671,0.0767 -0.6773,0.0401 -1.397,0.0767 -2.22909,0.0767 -1.49783,0 -2.82909,-0.15619 -3.84327,-0.38432 -1.02542,-0.24351 -1.91189,-0.61677 -2.69028,-1.07612 -1.23902,-0.7305 -2.04083,-1.55398 -2.61342,-2.61342 -0.44058,-0.82429 -0.57483,-1.8209 -0.69179,-2.76715 l 14.14321,0 0.84552,0 0.84552,0 0,-0.92238 0,-0.84552 -0.15373,0 c -0.0799,-1.47389 -0.20022,-2.84605 -0.61492,-3.99699 -0.49743,-1.39521 -1.18098,-2.63804 -2.15223,-3.61267 -0.87494,-0.87031 -1.97085,-1.49691 -3.15148,-1.92163 -1.17986,-0.42442 -2.45978,-0.6149 -3.92013,-0.61492 z m 35.43489,0 c -1.49984,3e-5 -2.97861,0.2231 -4.38132,0.76865 -1.39696,0.54957 -2.56887,1.35202 -3.5358,2.38283 -1.0742,1.15433 -1.91315,2.47523 -2.45969,3.84326 -0.55013,1.37701 -0.84547,2.8773 -0.84552,4.53505 0,1.71313 0.42031,3.33472 1.15298,4.76565 0.72499,1.38495 1.55747,2.54226 2.61342,3.45893 1.23225,1.09486 2.77175,1.93074 4.61191,2.53656 1.87281,0.59687 4.09054,0.84549 6.53355,0.84552 0.91852,0 1.69109,0.0426 2.38283,0 0.67174,-0.0276 0.9928,-0.0494 1.22984,-0.0768 l 0.69179,-0.0767 0.0767,-0.69179 0.38433,-2.69028 0.15373,-1.07611 -1.07612,0.0767 c -0.13085,0.01 -0.59586,0.0357 -1.30671,0.0767 -0.6773,0.0401 -1.39703,0.0767 -2.22909,0.0767 -1.49785,0 -2.75227,-0.15619 -3.7664,-0.38432 -1.02547,-0.24351 -1.91186,-0.61675 -2.69028,-1.07612 -1.23905,-0.73048 -2.11757,-1.55391 -2.69029,-2.61342 -0.44058,-0.82431 -0.57485,-1.82093 -0.69178,-2.76715 l 14.14321,0 0.84551,0 0.84552,0 0.0767,0 -0.0767,-0.92238 0,-0.84552 -0.15373,0 c -0.0799,-1.47318 -0.12348,-2.84654 -0.53806,-3.99699 -0.49742,-1.39514 -1.25764,-2.63799 -2.22909,-3.61267 -0.87493,-0.87033 -1.9709,-1.49691 -3.15147,-1.92163 -1.17989,-0.42442 -2.45982,-0.6149 -3.92013,-0.61492 z m 75.78915,0 c -1.05727,3e-5 -2.24252,0.23613 -3.68953,0.69179 -1.11026,0.34234 -2.59992,1.0447 -4.07386,1.7679 l 0,-1.07611 0,-0.84552 -0.84552,0 -3.5358,0 -0.84552,0 0,0.84552 c 0.0445,2.17793 0.0767,4.21974 0.0767,6.14922 0.0148,1.93437 -2e-5,3.63433 0,5.07311 0,3.12788 0.0295,5.4894 0,7.0716 -0.0298,1.57939 -0.077,2.34974 -0.0767,2.53655 l 0,0.84552 0.84552,0 3.5358,0 0.84552,0 0,-0.84552 c -5e-5,-0.22457 -0.0322,-1.28368 -0.0768,-3.5358 -0.0298,-2.24914 -7e-5,-4.17753 0,-5.76489 0,-1.21851 -0.0147,-2.59328 0,-4.07386 0.0123,-1.11237 -0.002,-1.47532 0,-1.84477 1.19947,-0.65369 2.36952,-1.25951 3.53581,-1.69103 1.2766,-0.47231 2.32568,-0.69179 3.07461,-0.69179 1.36783,0 2.08385,0.3447 2.45969,0.76865 0.39815,0.44919 0.72708,1.37192 0.76865,2.84402 0.0148,0.6311 0.0767,1.67716 0.0767,3.07461 0.0148,1.38529 5e-5,2.44355 0,3.15147 -2e-5,0.49132 -0.0472,1.76534 -0.0767,3.92013 -0.0148,2.1541 0.0123,3.50968 0,3.84326 l -0.0767,0.84552 0.92238,0 2.69028,0 0.84552,0 0.84552,0 0,-0.84552 c -3e-5,-0.0637 0.002,-0.67137 0,-0.84552 -0.01,-0.44367 -0.045,-0.81095 -0.0767,-2.15222 -0.0298,-1.8781 -3e-5,-3.36923 0,-4.61192 -3e-5,-0.77714 -0.0148,-1.8272 0,-3.07461 0.03,-1.27244 -3e-5,-2.72322 0,-4.45818 -3e-5,-2.09514 -0.65888,-3.87893 -1.9985,-5.14998 -1.31392,-1.27842 -3.08196,-1.9216 -5.14997,-1.92163 z m 43.27514,0 c -1.49982,3e-5 -2.97858,0.2231 -4.38132,0.76865 -1.39693,0.54957 -2.56887,1.35202 -3.5358,2.38283 -1.0742,1.15435 -1.9131,2.47528 -2.45969,3.84326 -0.55008,1.37696 -0.84559,2.87722 -0.84552,4.53505 0,1.7131 0.42017,3.33467 1.15298,4.76565 0.725,1.38497 1.63439,2.54228 2.69029,3.45893 1.23223,1.09489 2.77177,1.93074 4.61191,2.53656 1.87276,0.59687 4.0136,0.84549 6.45668,0.84552 0.91853,0 1.69099,0.0426 2.38283,0 0.67176,-0.0276 0.9928,-0.0494 1.22984,-0.0768 l 0.69179,-0.0767 0.0767,-0.69179 0.38433,-2.69028 0.15373,-1.07611 -1.07612,0.0767 c -0.13085,0.01 -0.59586,0.0357 -1.30671,0.0767 -0.67725,0.0401 -1.397,0.0767 -2.22909,0.0767 -1.49785,0 -2.75222,-0.15619 -3.7664,-0.38432 -1.02544,-0.24351 -1.91184,-0.61675 -2.69028,-1.07612 -1.23902,-0.7305 -2.11767,-1.55398 -2.69028,-2.61342 -0.44058,-0.82431 -0.57491,-1.82095 -0.69179,-2.76715 l 14.14321,0 0.84551,0 0.92239,0 0,-0.92238 0,-0.84552 -0.15373,0 c -0.0799,-1.47389 -0.20022,-2.84608 -0.61492,-3.99699 -0.49743,-1.39521 -1.25784,-2.63804 -2.2291,-3.61267 -0.87498,-0.87036 -1.8942,-1.49694 -3.07461,-1.92163 -1.17989,-0.42442 -2.53663,-0.6149 -3.99699,-0.61492 z M 697.54,242.64881 c -0.65501,0.0275 -1.06767,0.0622 -1.30671,0.0768 l -0.69178,0.0767 -0.0768,0.69178 -0.38432,2.76715 -0.15373,0.99925 1.07611,-0.0767 c 0.80292,-0.0413 1.38045,-0.0492 1.84477,-0.0767 0.45179,-0.0261 1.03484,-0.0767 1.69103,-0.0767 1.03922,0 1.93966,0.0509 2.69029,0.15373 0.74245,0.089 1.41975,0.24228 1.99849,0.46119 0.8255,0.31024 1.3898,0.77684 1.7679,1.30671 0.23441,0.32856 0.25815,0.90364 0.38433,1.38357 -1.61965,0.14734 -3.19619,0.28808 -4.53505,0.53806 -1.6368,0.29437 -2.95286,0.67491 -3.99699,1.07611 -1.63865,0.62671 -2.93387,1.4542 -3.92013,2.53656 -0.99313,1.09296 -1.53733,2.50315 -1.53731,3.99699 0,1.40465 0.45298,2.65806 1.30671,3.68953 0.83549,0.98919 1.93536,1.75288 3.22834,2.30596 0.9719,0.41957 2.09743,0.7076 3.38208,0.92238 1.27748,0.2135 2.50059,0.38431 3.76639,0.38433 1.95868,0 3.57543,-0.0548 4.84251,-0.15373 1.23292,-0.0824 1.86629,-0.1343 2.07537,-0.15373 l 0.84551,-0.0767 0,-0.76866 c -2e-5,-0.13823 -0.0147,-1.31709 0,-3.45893 0.0123,-1.90897 -10e-4,-4.54819 0,-7.45593 l 0,-0.92239 0,-0.84551 -0.15373,0 c -0.0622,-1.56456 -0.12249,-2.98958 -0.53805,-3.997 -0.47925,-1.17696 -1.20102,-2.19507 -2.15223,-2.99774 -1.02345,-0.85352 -2.28286,-1.41373 -3.7664,-1.7679 -1.45006,-0.36446 -3.11158,-0.53804 -4.91937,-0.53806 -1.15335,2e-5 -2.06907,-0.043 -2.76715,0 z m 169.10358,0 c -2.31698,3e-5 -4.31771,0.12815 -5.99549,0.38433 -1.67586,0.244 -3.24497,0.73033 -4.68878,1.38357 -2.02295,0.91385 -3.68368,2.17794 -4.91938,3.7664 -1.25476,1.61282 -1.84471,3.51832 -1.84476,5.61117 0,2.04417 0.38929,3.83804 1.30671,5.3037 0.88344,1.41154 2.04513,2.50524 3.45893,3.38207 1.42519,0.91837 3.12085,1.58291 5.07311,1.9985 1.89698,0.38996 3.80533,0.60968 5.61116,0.61492 -0.13061,0.84781 -0.26953,1.69453 -0.69178,2.30596 -0.53695,0.78816 -1.52132,1.50823 -3.15148,2.07536 -1.05631,0.35998 -2.2879,0.56002 -3.61267,0.69179 -1.34729,0.14733 -2.89658,0.28033 -4.61191,0.30746 l -0.92239,0 0.0767,0.92238 0.38432,2.69029 0.0768,0.69178 0.76865,0 c 2.62249,0 4.87704,-0.16603 6.76414,-0.53805 1.8658,-0.35368 3.49335,-0.81443 4.84251,-1.46044 1.7194,-0.85413 3.0463,-2.06506 3.997,-3.53581 1.00338,-1.52589 1.46039,-3.5405 1.46044,-5.99549 -3e-5,-1.28022 0.0148,-2.68743 0,-4.22759 -0.0148,-1.53511 0,-3.05498 0,-4.53505 -3e-5,-2.1812 -0.0148,-4.42598 0,-6.841 0.0246,-1.91554 0.0721,-2.6333 0.0767,-3.22835 10e-4,-0.15569 0,-0.77699 0,-0.84551 l 0,-0.92239 -0.92238,0 c -0.30737,3e-5 -0.56305,0 -0.84552,0 -0.15398,0 -0.3145,0 -0.46119,0 -0.40076,3e-5 -0.81431,3e-5 -1.22985,0 z m 12.75963,0 c -0.65506,0.0275 -1.06772,0.0622 -1.30671,0.0768 l -0.69178,0.0767 -0.0767,0.69178 -0.38432,2.76715 -0.15373,0.99925 1.07611,-0.0767 c 0.80289,-0.0413 1.3804,-0.0492 1.84477,-0.0767 0.45174,-0.0261 1.03479,-0.0767 1.69103,-0.0767 1.03927,0 1.93971,0.0509 2.69029,0.15373 0.74243,0.089 1.41973,0.24228 1.99849,0.46119 0.82555,0.31024 1.38997,0.77699 1.76791,1.30671 0.23809,0.33378 0.33486,0.89333 0.46119,1.38357 -1.62573,0.14758 -3.26888,0.28729 -4.61192,0.53806 -1.63677,0.29437 -2.95288,0.67489 -3.99699,1.07611 -1.63865,0.62671 -2.93387,1.45417 -3.92013,2.53656 -0.9932,1.09298 -1.53726,2.42633 -1.53731,3.92012 0,1.40466 0.45293,2.73493 1.30671,3.7664 0.83551,0.98922 1.93548,1.75288 3.22834,2.30596 0.97193,0.41957 2.09745,0.7076 3.38208,0.92238 1.27748,0.2135 2.50064,0.38431 3.76639,0.38433 1.95873,0 3.57541,-0.0548 4.84252,-0.15373 1.23291,-0.0824 1.86633,-0.1343 2.07536,-0.15373 l 0.84552,-0.0767 0,-0.76866 c -3e-5,-0.13798 -0.0148,-1.31706 0,-3.45893 0.0123,-1.90899 -10e-4,-4.54821 0,-7.45593 l 0,-0.92239 0,-0.84551 -0.15373,0 c -0.0622,-1.56456 -0.1225,-2.98958 -0.53806,-3.997 -0.47927,-1.17698 -1.20114,-2.1951 -2.15223,-2.99774 -1.02343,-0.85352 -2.28276,-1.41373 -3.7664,-1.7679 -1.45003,-0.36446 -3.11163,-0.53804 -4.91937,-0.53806 -1.1533,2e-5 -2.06917,-0.043 -2.76715,0 z m -191.31763,0.15373 c -2.0505,3e-5 -3.98391,0.17464 -5.91863,0.61493 -1.92741,0.42786 -3.64268,1.06895 -5.07311,1.92163 -1.58807,0.94016 -2.85129,2.19488 -3.84326,3.68953 -1.00899,1.50538 -1.53733,3.18827 -1.53731,4.99624 0,1.99737 0.51339,3.90213 1.61418,5.5343 1.0967,1.62613 2.62662,2.88039 4.53505,3.84326 1.39673,0.69678 2.96358,1.25799 4.68878,1.61417 1.72431,0.34178 3.57001,0.46117 5.5343,0.4612 0.17808,0 0.43947,-3e-5 0.69178,0 0.2672,0 0.4194,-3e-5 0.53806,0 l 0.84552,0 0,-0.76866 0.23047,-1.99849 0.0767,0 0,-0.76866 0.0767,-0.84551 -0.0767,0 0,-0.0768 -0.76865,0 -0.0767,0 -0.76865,-0.0767 0,0.0767 c -0.22802,3e-5 -0.42501,3e-5 -0.61493,0 -1.41407,3e-5 -2.81619,-0.10921 -4.07386,-0.30746 -1.24211,-0.19579 -2.26916,-0.49142 -3.22834,-0.92238 l -0.0767,0 c -1.21703,-0.53789 -2.11818,-1.2647 -2.84401,-2.22909 -0.68377,-0.93707 -1.07614,-2.07256 -1.07612,-3.53581 0,-1.162 0.38374,-2.25012 1.15298,-3.3052 0.76096,-1.04375 1.74296,-1.80822 3.07461,-2.30596 l 0.0767,0 c 1.04129,-0.40344 2.05493,-0.67646 3.15148,-0.84552 1.10917,-0.18177 2.5365,-0.30743 4.15072,-0.30746 0.10405,3e-5 0.18866,3e-5 0.30747,0 0.13356,3e-5 0.28033,3e-5 0.38432,0 l 0.92238,0 -0.0767,-0.92238 -0.23047,-2.76715 0,-0.76865 -0.84552,0 c -0.1038,2e-5 -0.20637,2e-5 -0.38432,0 -0.16333,2e-5 -0.37493,2e-5 -0.53806,0 z m 252.50238,0 c -2.05052,3e-5 -3.98388,0.17464 -5.91862,0.61493 -1.92744,0.42786 -3.64268,1.06895 -5.07311,1.92163 -1.5881,0.94016 -2.92818,2.19488 -3.92013,3.68953 -1.00901,1.50538 -1.46049,3.18825 -1.46044,4.99624 0,1.99737 0.51336,3.9021 1.61417,5.5343 1.09668,1.62613 2.6267,2.88039 4.53505,3.84326 1.39676,0.69678 2.96366,1.25799 4.68878,1.61417 1.72437,0.34178 3.57,0.46117 5.5343,0.4612 0.17808,0 0.43945,-3e-5 0.69179,0 0.26715,0 0.41938,-3e-5 0.53806,0 l 0.76865,0 0.0767,-0.76866 0.23047,-1.99849 0.0767,0 0,-0.76866 0.0767,-0.84551 -0.0767,0 0,-0.0768 -0.76866,0 -0.0767,0 -0.76865,-0.0767 0,0.0767 c -0.23416,3e-5 -0.4976,3e-5 -0.69179,0 -1.41402,3e-5 -2.73933,-0.10921 -3.99699,-0.30746 -1.24212,-0.19579 -2.34595,-0.49142 -3.30521,-0.92238 -1.217,-0.53789 -2.11818,-1.2647 -2.84401,-2.22909 -0.68377,-0.93705 -1.07612,-2.07254 -1.07612,-3.53581 0,-1.16203 0.38374,-2.25014 1.15298,-3.3052 0.76103,-1.04379 1.74294,-1.80824 3.07461,-2.30596 1.04121,-0.40344 2.13179,-0.67646 3.22834,-0.84552 1.10913,-0.18177 2.53653,-0.30743 4.15073,-0.30746 0.10404,3e-5 0.18866,3e-5 0.30746,0 0.13356,3e-5 0.28035,3e-5 0.38433,0 l 0.84551,0 0,-0.92238 -0.23047,-2.76715 0,-0.76865 -0.84552,0 c -0.1038,2e-5 -0.20612,2e-5 -0.38432,0 -0.16333,2e-5 -0.37493,2e-5 -0.53806,0 z m -406.84783,3.68954 c 1.49423,2e-5 2.61942,0.41903 3.45894,1.22984 0.6145,0.57667 0.86344,1.52358 1.15297,2.45969 l -9.60815,0 c 0.39716,-0.91621 0.78306,-1.86654 1.46044,-2.45969 0.95416,-0.84729 2.04387,-1.22984 3.5358,-1.22984 z m 23.29017,0 c 1.49419,2e-5 2.54261,0.41905 3.38207,1.22984 0.61451,0.57667 0.86343,1.52356 1.15298,2.45969 l -9.60815,0 c 0.39716,-0.91621 0.78309,-1.86654 1.46044,-2.45969 0.95421,-0.84731 2.12074,-1.22984 3.61266,-1.22984 z m 209.84217,0 c 1.49424,2e-5 2.5426,0.41905 3.38207,1.22984 0.61453,0.57667 0.86343,1.52358 1.15298,2.45969 l -9.60816,0 c 0.39719,-0.91621 0.78312,-1.86654 1.46044,-2.45969 0.95416,-0.84729 2.12077,-1.22984 3.61267,-1.22984 z m 34.58937,0 c 1.49423,2e-5 2.61934,0.419 3.45893,1.22984 0.61451,0.57667 0.86345,1.52358 1.15298,2.45969 l -9.60815,0 c 0.39716,-0.91621 0.78306,-1.86654 1.46044,-2.45969 0.95418,-0.84729 2.04395,-1.22984 3.5358,-1.22984 z m 35.51175,0 c 1.49426,2e-5 2.54246,0.41898 3.38207,1.22984 0.6145,0.57667 0.86345,1.52358 1.15298,2.45969 l -9.60816,0 c 0.39717,-0.91621 0.78307,-1.86656 1.46044,-2.45969 0.95416,-0.84729 2.12082,-1.22984 3.61267,-1.22984 z m 119.06429,0 c 1.49426,2e-5 2.54251,0.419 3.38207,1.22984 0.61451,0.57667 0.8634,1.52356 1.15298,2.45969 l -9.60816,0 c 0.39717,-0.91621 0.78307,-1.86654 1.46044,-2.45969 0.95414,-0.84729 2.12085,-1.22984 3.61267,-1.22984 z m -532.90686,0.15373 c 0.76486,2e-5 1.53762,0.13085 2.22909,0.38432 0.70352,0.24105 1.27992,0.55948 1.7679,0.99925 l 0,0.0767 c 0.84429,0.7444 1.44516,1.59386 1.84477,2.69029 0.42491,1.12853 0.61492,2.27054 0.61492,3.45893 -3e-5,1.13237 -0.20908,2.20263 -0.61492,3.22835 -0.40229,1.01705 -0.93751,1.90414 -1.69104,2.61341 -0.52362,0.4961 -1.13033,0.88864 -1.84477,1.15298 -0.6982,0.26312 -1.46358,0.38433 -2.30595,0.38433 -0.76231,0 -1.48516,-0.0898 -2.15223,-0.30746 -0.66702,-0.22998 -1.19519,-0.5876 -1.69104,-0.99925 -0.92427,-0.76821 -1.59215,-1.65955 -1.99849,-2.69028 -0.41837,-1.07351 -0.61493,-2.22954 -0.61493,-3.53581 -2e-5,-1.13229 0.20686,-2.24813 0.61493,-3.3052 0.42112,-1.05553 0.9286,-1.8136 1.61417,-2.45969 l 0,-0.0767 c 0.59935,-0.57906 1.27958,-0.97362 1.92163,-1.22985 0.63292,-0.25251 1.36633,-0.3843 2.30596,-0.38432 z m 183.32365,0 c 0.76486,2e-5 1.46073,0.13085 2.15222,0.38432 0.70352,0.24105 1.2799,0.55948 1.76791,0.99925 l 0.0767,0.0767 c 0.84426,0.7444 1.44521,1.59388 1.84476,2.69029 0.42494,1.1285 0.61488,2.27051 0.61493,3.45893 -3e-5,1.13235 -0.20932,2.20258 -0.61493,3.22835 -0.40225,1.01703 -0.93753,1.90411 -1.69103,2.61341 -0.52362,0.4961 -1.1303,0.88864 -1.84477,1.15298 -0.69818,0.26312 -1.46354,0.38433 -2.30596,0.38433 -0.76225,0 -1.48511,-0.0898 -2.15222,-0.30746 -0.66702,-0.22998 -1.27198,-0.58757 -1.7679,-0.99925 -0.92426,-0.76818 -1.51522,-1.6595 -1.92164,-2.69028 -0.41834,-1.07353 -0.69176,-2.22954 -0.69178,-3.53581 0,-1.13231 0.20686,-2.24813 0.61492,-3.3052 0.42112,-1.0555 1.00549,-1.81358 1.69103,-2.45969 l 0,-0.0767 c 0.59936,-0.57904 1.20274,-0.97362 1.84477,-1.22985 0.6329,-0.25251 1.44312,-0.3843 2.38282,-0.38432 z m 258.42101,0.38432 c 0.0197,1.28945 0.0767,2.55995 0.0767,3.7664 0.0123,1.14164 -0.002,1.99737 0,2.84402 7.6e-4,0.2517 0,0.61994 0,0.84551 l 0,0.84552 c -0.002,1.46804 0.0123,2.86716 0,3.99699 -0.01,0.86173 -0.0735,1.07703 -0.0767,1.46044 -1.25353,-0.005 -2.49538,-0.15471 -3.61267,-0.38432 -1.13997,-0.23736 -2.08227,-0.55358 -2.92088,-0.92238 -1.21813,-0.53831 -2.13447,-1.28103 -2.84401,-2.2291 -0.67243,-0.91535 -1.07619,-1.94431 -1.07612,-3.3052 0,-1.31257 0.36999,-2.43074 1.07612,-3.45894 0.69761,-1.0157 1.68919,-1.82996 3.07461,-2.38282 1.09431,-0.43379 2.12295,-0.69243 3.07461,-0.84552 0.89589,-0.14193 2.0273,-0.21793 3.22834,-0.23047 z m -279.78956,0.53806 c 0,0.33297 -2e-5,0.6697 0,0.99925 0,0.35702 0,0.67449 0,0.99925 0,0.27479 -2e-5,0.59379 0,0.84551 l 0,0.84552 c -0.001,3.3894 -0.0635,6.24719 -0.0767,7.99399 -0.01,1.34567 0.002,1.68415 0,2.15223 -1.24475,-0.0172 -2.47435,-0.0895 -3.61267,-0.30746 -1.21343,-0.24797 -2.27914,-0.60528 -3.22834,-1.07612 -1.06143,-0.52194 -1.90512,-1.23749 -2.61342,-2.15223 -0.66837,-0.86315 -0.99922,-1.89678 -0.99924,-3.15147 0,-1.43065 0.3642,-2.59502 1.07611,-3.61267 0.71847,-1.03917 1.71573,-1.80462 3.07461,-2.38282 0.85799,-0.36531 1.89362,-0.69754 3.15148,-0.92238 1.00352,-0.17735 2.1171,-0.19358 3.22834,-0.23048 z m 121.60085,6.91787 c 0.005,0.52945 0,1.09481 0,1.53731 -3e-5,0.37252 0,0.61713 0,0.92238 l 0,0.84552 0,0.84552 c -0.002,0.90184 0.01,1.79144 0,2.38282 l 0,0.0767 c 0,0.33359 0,0.32567 0,0.53806 -0.1739,0.005 -0.37077,-0.005 -0.53806,0 -0.42427,0.0123 -0.79271,2e-5 -1.07611,0 -0.95156,0 -1.83316,-0.0613 -2.69029,-0.15373 -0.83026,-0.10405 -1.56003,-0.24649 -2.22909,-0.46119 -0.84847,-0.26978 -1.49192,-0.63568 -1.92163,-1.07612 -0.38925,-0.40875 -0.53808,-0.92622 -0.53806,-1.69103 0,-0.63615 0.20981,-1.025 0.69179,-1.46044 0.57067,-0.50384 1.19233,-0.90003 1.92163,-1.15298 1.03194,-0.36908 2.33154,-0.64515 3.92013,-0.84552 1.18151,-0.15889 1.8169,-0.25135 2.45969,-0.30746 z m 181.86321,0 c 0.005,0.52945 -5e-5,1.09471 0,1.53731 -2e-5,0.37252 0,0.61713 0,0.92238 l 0,0.84552 0,0.84552 c -0.002,0.90184 0.01,1.79139 0,2.38282 l 0,0.0767 c 0,0.33359 0,0.32574 0,0.53806 -0.1739,0.005 -0.37075,-0.005 -0.53806,0 -0.42429,0.0123 -0.79266,2e-5 -1.07611,0 -0.95156,0 -1.83326,-0.0613 -2.69028,-0.15373 -0.83027,-0.10405 -1.56009,-0.24649 -2.2291,-0.46119 -0.84844,-0.26978 -1.4919,-0.63566 -1.92163,-1.07612 -0.38924,-0.40875 -0.5381,-0.92622 -0.53806,-1.69103 0,-0.63615 0.20982,-1.025 0.69179,-1.46044 0.57065,-0.50382 1.19239,-0.90003 1.92163,-1.15298 1.03197,-0.36908 2.33157,-0.64515 3.92013,-0.84552 1.18146,-0.15889 1.81688,-0.25135 2.45969,-0.30746 z" />
    <path
       inkscape:connector-curvature="0"
       style="fill:#bfff80;fill-rule:evenodd;display:inline"
       id="path2594"
       d="m 796.26432,220.43089 -16.7982,0 0,-145.993427 c 0,-0.99091 -0.33028,-2.548041 -1.03808,-4.577037 -1.3684,-3.916439 -3.82206,-6.88917 -7.40822,-8.918167 -2.87835,-1.55713 -6.3701,-2.312107 -10.42809,-2.312107 -0.18866,0 -0.51904,0.09445 -1.03809,0.235885 -0.51904,0.188904 -0.84935,0.283134 -1.03811,0.283134 -0.99088,0 -2.54802,0.613422 -4.57704,1.793064 -3.39737,1.84024 -5.80388,4.577037 -7.17225,8.163189 -0.99091,2.217729 -1.50995,4.010793 -1.50995,5.332014 l 0,145.993432 -16.79823,0 0,-145.993432 c 0,-0.141678 -0.0945,-0.896532 -0.28311,-2.26493 -0.51904,-2.076198 -1.46277,-4.105195 -2.83115,-6.134192 -3.06708,-4.246751 -6.93634,-6.74759 -11.74931,-7.408188 0.51904,0 -0.6606,0 -3.53895,0 -0.18866,0 -0.51905,0 -1.03809,0 -0.51904,0 -0.84935,0 -0.99091,0 -0.84933,0 -2.40649,0.613421 -4.62421,1.793063 -4.95453,2.548041 -7.7385,6.558858 -8.4463,12.032427 -0.14168,0.188658 -0.23589,0.424665 -0.23589,0.754977 l 0,147.220275 -17.36444,0 0,-146.465298 c 0,-3.397396 0.75498,-6.983523 2.26493,-10.71123 0.70778,-1.55713 1.65151,-3.303017 2.83115,-5.379191 2.35931,-4.24675 5.99262,-7.880055 10.85279,-10.852785 4.81297,-2.972705 9.90905,-4.624238 15.19389,-4.954525 1.32122,-0.188659 3.20866,-0.283111 5.61512,-0.235885 0.14143,-0.04723 0.56625,0.04723 1.27402,0.235885 0.6606,0.141432 1.08529,0.235884 1.27402,0.235884 1.50995,0 4.38831,0.849355 8.68223,2.54804 0.6606,0.188658 1.41558,0.519044 2.26493,1.038087 2.92553,1.69871 5.99262,4.24675 9.20128,7.644146 2.73677,-2.878352 5.09608,-5.001727 7.17225,-6.370126 5.4264,-3.586127 12.5043,-5.379191 21.13933,-5.332014 0.18866,-0.04723 0.61342,0.04723 1.27402,0.235884 0.70777,0.141432 1.13246,0.235884 1.3212,0.235884 1.50995,0 4.24675,0.754977 8.16319,2.312132 9.01252,3.586103 15.05233,9.767496 18.11941,18.638436 1.50996,4.577062 2.26491,8.163165 2.26491,10.71123 l 0,146.465296 0,0 0,0 z" />
    <polygon
       style="fill:#bfff80;fill-rule:evenodd;display:inline"
       id="polygon2596"
       transform="matrix(5.8982482,0,0,5.8982482,54.453487,-21.161352)"
       points="131.432,40.96 128.488,40.96 128.488,23.656 128.488,23.656 131.432,23.656 " />
    <path
       inkscape:connector-curvature="0"
       style="fill:#bfff80;fill-rule:evenodd;display:inline"
       id="path2598"
       d="m 913.09684,220.43089 -16.79822,0 0,-69.17465 c 0,-0.33031 -0.10036,-1.17964 -0.28311,-2.54804 -1.36838,-6.46448 -5.33202,-10.61685 -11.98523,-12.5043 -1.03809,-0.33031 -3.07301,-0.51904 -6.13419,-0.51904 -0.18866,0 -0.56622,0.0945 -1.13247,0.28311 -0.61342,0.18866 -0.89062,0.23588 -0.89062,0.23588 -0.85526,0 -2.50675,0.61343 -4.86018,1.79309 -4.62421,2.21773 -7.31381,6.13417 -8.16316,11.74929 -0.18866,0.18866 -0.28901,0.42467 -0.28901,0.75498 l 0,69.92963 -17.35854,0 0,-102.06329 17.35854,0 c -0.13578,1.56303 -0.13578,2.87835 0,4.05799 5.85105,-2.68957 12.0855,-4.05799 18.73874,-4.05799 0.18275,0 0.65469,0.10035 1.55713,0.28903 0.85523,0.13578 1.3684,0.22999 1.50995,0.22999 3.58613,0 7.98034,1.6043 13.07052,4.86014 4.29983,2.55395 7.7444,5.94544 10.28656,10.19807 3.5861,5.61515 5.37919,11.08869 5.37919,16.32635 l 0,70.15966 -0.005,0 z" />
    <path
       inkscape:connector-curvature="0"
       style="fill:#bfff80;fill-rule:evenodd;display:inline"
       id="path2600"
       d="m 963.63303,135.68486 -16.8454,0 0,52.61239 c 0.18866,0.47184 0.37749,1.274 0.51905,2.26491 1.22684,5.47359 4.53576,9.20718 9.95625,11.23027 1.17964,0.33029 1.84024,0.51904 2.029,0.51904 0.18865,0 0.23588,0.0944 0.23588,0.23589 0,0 0.0944,0 0.28311,0 0.18866,0 0.51907,0.0944 1.03811,0.28311 0.47187,0.18866 0.85526,0.23588 0.99091,0.23588 0.18866,0 0.47184,0 0.89651,0 0.42469,0 0.7078,0 0.89655,0 l 0,17.36444 c -6.98942,-0.33619 -13.21206,-2.12337 -18.63846,-5.33201 -4.10517,-2.40649 -7.50259,-5.80388 -10.19806,-10.23937 -3.58025,-5.75667 -5.37331,-11.419 -5.37331,-16.83949 l 0,-120.707658 17.35853,0 0,50.772128 16.8454,0 0,17.60037 0.005,0 0,0 z" />
    <path
       inkscape:connector-curvature="0"
       style="fill:#bfff80;fill-rule:evenodd;display:inline"
       id="path2604"
       d="m 818.39455,107.75074 c -3.49174,0 -6.65321,-2.68959 -6.65321,-6.32289 l 0,-1.55716 0,0 0,-19.157504 -1.93462,0 0,-6.511681 10.14499,0.04723 1.50995,0 c 3.53893,0 6.65321,2.642419 6.65321,6.275747 l 0,27.226288 -9.72032,0 0,0 0,0 z" />
    <polygon
       points="64.168,23.48 64.168,23.48 66.376,23.48 66.376,40.96 64.168,40.96 "
       transform="matrix(5.8982482,0,0,5.8982482,54.453487,-21.161352)"
       id="polygon2586"
       style="fill:#ffffff;fill-rule:evenodd;display:inline" />
    <path
       d="m 511.6385,220.43089 -13.02334,0 0,-77.99844 c 0,-3.53893 -1.27402,-6.60603 -3.82208,-9.15408 -2.54802,-2.54804 -5.61513,-3.81615 -9.15405,-3.81615 -3.58615,0 -6.65324,1.27399 -9.20128,3.81615 -2.54804,2.54805 -3.82208,5.61515 -3.82208,9.15408 l 0,77.99844 -12.97614,0 0,-77.99844 c 0,-7.12508 2.50086,-13.25927 7.59695,-18.34942 5.09608,-5.09611 11.23027,-7.65005 18.40255,-7.65005 7.12508,0 13.25924,2.55394 18.35532,7.65005 5.09609,5.09015 7.64415,11.22434 7.64415,18.34942 l 0,77.99844 0,0 z"
       id="path2588"
       style="fill:#ffffff;fill-rule:evenodd;display:inline"
       inkscape:connector-curvature="0" />
    <path
       d="m 573.35776,194.42552 c 0,7.17225 -2.54804,13.25927 -7.59694,18.35535 -5.09608,5.0902 -11.23027,7.64412 -18.40253,7.64412 -7.12508,0 -13.25927,-2.55392 -18.35535,-7.64412 -5.09608,-5.09608 -7.64412,-11.1831 -7.64412,-18.35535 l 0,-77.99254 13.02331,0 0,77.99844 c 0,3.58613 1.27402,6.60603 3.82206,9.15407 2.54804,2.55395 5.61515,3.82209 9.1541,3.82209 3.58613,0 6.65321,-1.27405 9.20125,-3.82209 2.54804,-2.54804 3.82206,-5.56204 3.82206,-9.15407 l 0,-77.99844 12.97616,0 0,77.99254 0,0 z"
       id="path2590"
       style="fill:#ffffff;fill-rule:evenodd;display:inline"
       inkscape:connector-curvature="0" />
    <polygon
       points="98.448,40.96 98.448,40.96 96.024,40.96 94.04,35.488 92.056,40.96 89.624,40.96 92.824,32.144 89.624,23.328 92.056,23.328 94.04,28.8 96.024,23.328 98.448,23.328 95.248,32.144 "
       transform="matrix(5.8982482,0,0,5.8982482,54.453487,-21.161352)"
       id="polygon2592"
       style="fill:#ffffff;fill-rule:evenodd;display:inline" />
    <path
       d="m 439.75979,108.6473 c -3.49175,0 -6.60604,-2.68962 -6.60604,-6.32292 l 0,-1.55713 0,0 0,-19.157533 -1.98182,0 0,-6.511656 6.6205,0.04723 1.50995,0 c 3.49175,0 6.60601,2.642419 6.60601,6.275748 l 0,27.226311 -6.1486,0 0,0 0,0 z"
       id="path2602"
       style="fill:#ffffff;fill-rule:evenodd;display:inline"
       inkscape:connector-curvature="0" />
    <path
       d="m 380.11522,41.597032 0,152.500678 c 0,7.17226 2.51358,13.27472 7.60966,18.3708 4.78666,4.78112 10.5226,7.31841 17.14096,7.60966 l 0,0.0767 1.30671,0 13.22082,0 0,-13.06709 -13.22082,0 c -4.24643,0 -6.67579,-1.20621 -9.22383,-3.61267 -2.54802,-2.3534 -3.84327,-5.18182 -3.84327,-8.53204 l 0,-153.346201 -12.99023,0 z"
       id="polygon3803"
       style="fill:#ffffff;fill-rule:evenodd;display:inline"
       inkscape:connector-curvature="0" />
    <path
       inkscape:connector-curvature="0"
       style="fill:url(#linearGradient3157);fill-opacity:1;fill-rule:evenodd;display:inline"
       id="path2576"
       d="m 297.36095,219.6494 c 0,-36.20721 0,-121.619811 0,-121.619811 0,-40.631741 -35.63252,-73.568788 -79.59741,-73.568788 l -45.6313,0 0,-0.09814 -123.415312,-0.539262 0,44.375066 c 0,0 10.076999,0 18.945012,0 13.224047,0 15.56021,9.128789 15.56021,21.764086 l 0.09814,78.450089 c 0,40.63176 35.63267,73.56876 79.54849,73.56876 l 108.42806,0 c 13.90056,0 26.06418,-8.8031 26.06418,-22.3321 z" />
    <path
       inkscape:connector-curvature="0"
       style="opacity:0.17514122;fill:url(#linearGradient3159);fill-opacity:1;fill-rule:nonzero;display:inline;filter:url(#filter3291)"
       id="path3419"
       transform="matrix(2.5789823,0,0,2.5789823,-82.033811,-1060.9371)"
       d="m 142.9375,500.53125 c -10.75182,-7.40935 -18.36682,-15.92034 -24.78125,-27.1875 -12.64444,-23.35809 -9.68791,-34.95326 -41,-37.6875 -9.036289,0 -15.051217,-2 -24.5625,-2 l 0,3.3125 c 10e-7,10e-6 3.758681,1.90749 7.0625,1.90749 4.926697,1e-5 5.78125,3.41765 5.78125,8.125 l 0.03125,29.15501 c -3e-6,15.13758 13.295158,27.40625 29.65625,27.40625 l 40.375,0 c 2.96358,0 5.62572,-1.16787 7.4375,-3.03125 z" />
    <path
       inkscape:connector-curvature="0"
       style="fill:#000000;fill-opacity:0.08040203;fill-rule:evenodd;stroke:none;stroke-width:4.7667098;marker:none;visibility:visible;display:inline;overflow:visible;filter:url(#filter3546);enable-background:accumulate"
       id="path2620"
       transform="matrix(2.5789823,0,0,2.5789823,-82.033811,-1060.9371)"
       d="m 105.51844,438.54009 c -3.83671,0 -7.245744,1.42445 -9.984837,4.1914 -2.737725,2.76548 -4.1752,6.21796 -4.17519,10.11421 l 0,19.69466 8.932957,0 0,-19.69466 c 0,-1.49338 0.48728,-2.66108 1.55355,-3.73818 1.06977,-1.08055 2.2026,-1.56971 3.67352,-1.56971 1.50175,0 2.61758,0.4867 3.68969,1.56971 1.06628,1.0771 1.55356,2.2448 1.55356,3.73818 l 0,19.69466 8.93297,0 0,-19.69466 c 0,-1.49338 0.48728,-2.66108 1.55356,-3.73818 1.07211,-1.08301 2.18794,-1.56971 3.68971,-1.56971 1.47093,0 2.60373,0.48916 3.6735,1.56971 1.06627,1.0771 1.55356,2.2448 1.55356,3.73818 l 0.0486,23.01222 c 0,4.90894 -4.67486,9.04618 -10.68071,9.04618 l -28.805549,-0.11326 c -4.634707,0 -8.593128,-4.51117 -8.593128,-10.30852 l 0,-43.33528 -8.447462,0 0,45.00209 c 0,4.77471 1.747181,8.96178 5.146164,12.3476 2.905193,2.8676 6.399074,4.56445 10.324689,4.98427 l 0,0.16191 32.074486,0 c 4.92872,0 9.25884,-1.83265 12.75212,-5.38904 l 0.0162,0 c 2.97102,-3.05245 4.70787,-6.70998 5.12997,-10.82624 l -0.0324,-24.58193 c 0,-3.89625 -1.43744,-7.34873 -4.17521,-10.11421 -2.73906,-2.76695 -6.14812,-4.1914 -9.98482,-4.1914 -3.76604,0 -7.06133,1.40042 -9.72593,3.96479 -2.65681,-2.56014 -5.92908,-3.96479 -9.69356,-3.96479 z" />
    <path
       inkscape:connector-curvature="0"
       style="fill:#ffffff;fill-opacity:1;fill-rule:evenodd;stroke:none;stroke-width:1;marker:none;visibility:visible;display:inline;overflow:visible;enable-background:accumulate"
       id="path6141"
       d="m 162.14777,258.82331 c -52.36706,0 -97.811452,-39.69918 -97.811452,-92.01931 l -0.04698,-63.52792 0,-16.199582 -33.200259,0 0,-80.7170116 140.006321,0.659344 43.79618,0.094206 c 52.41412,0 97.81143,39.6519236 97.81143,92.0190336 l 0,159.69121 -150.55517,0 0,0 0,0 z m 129.22209,-42.83713 c 0,-34.7884 0,-116.854085 0,-116.854085 0,-39.039559 -34.23623,-70.68596 -76.47835,-70.68596 l -43.84323,0 0,-0.09421 -118.579196,-0.518133 0,37.909628 c 0,0 4.762719,0 13.283228,0 9.018201,0 19.869854,8.474782 19.869854,20.911237 l 0.09421,80.102613 c 0,39.03958 34.236404,70.68593 76.431374,70.68593 l 104.17924,0 c 13.35583,0 25.04285,-8.45815 25.04285,-21.45702 z" />
    <path
       inkscape:connector-curvature="0"
       style="fill:#ffffff;fill-opacity:1;fill-rule:evenodd;stroke:none;stroke-width:1;marker:none;visibility:visible;display:inline;overflow:visible;enable-background:accumulate"
       id="path4130"
       d="m 188.2566,70.654757 c -9.89481,0 -18.68665,3.673619 -25.75072,10.809544 -7.06056,7.132112 -10.76778,16.036012 -10.76776,26.084359 l 0,50.79219 23.03796,0 0,-50.79219 c 0,-3.85138 1.25668,-6.86288 4.00656,-9.640703 2.75894,-2.786704 5.68048,-4.048253 9.47396,-4.048253 3.87298,0 6.75069,1.255203 9.51565,4.048253 2.74991,2.777823 4.00661,5.789323 4.00661,9.640703 l 0,50.79219 23.03793,0 0,-50.79219 c 0,-3.85138 1.25671,-6.86288 4.00664,-9.640703 2.76494,-2.79305 5.64265,-4.048253 9.5157,-4.048253 3.7935,0 6.71497,1.261549 9.47386,4.048253 2.7499,2.777823 4.00661,5.789323 4.00661,9.640703 l 0.1252,59.34812 c 0,12.66007 -12.05639,23.32992 -27.54537,23.32992 l -74.28898,-0.29208 c -11.95283,0 -22.16152,-11.63423 -22.16152,-26.5855 l 0,-111.760908 -21.78586,0 0,116.059588 c 0,12.31389 4.50596,23.11226 13.27187,31.84426 7.49243,7.39547 16.5031,12.18937 26.62716,13.27208 l 82.71956,-2e-4 c 12.71108,0 23.87836,-4.72636 32.88749,-13.89822 l 0.0418,0 c 7.66218,-7.87223 12.14152,-17.30492 13.2301,-27.92069 l -0.0834,-63.39637 c 0,-10.048347 -3.7071,-18.952247 -10.76775,-26.084359 -7.06401,-7.135925 -15.85592,-10.809544 -25.75068,-10.809544 -9.71255,0 -18.21104,3.611659 -25.08302,10.225122 -6.85188,-6.602566 -15.29097,-10.225122 -24.99951,-10.225122 z" />
    <path
       inkscape:connector-curvature="0"
       style="opacity:0.3;fill:#52a800;fill-opacity:1;fill-rule:evenodd;stroke:none;stroke-width:1;marker:none;visibility:visible;display:inline;overflow:visible;enable-background:accumulate"
       id="path4132"
       d="m 174.70874,190.01183 0,22.75211 54.11314,0 c 12.71103,0 23.81234,-4.74075 32.82144,-13.91261 l 0.077,0 c 7.6622,-7.87226 12.13224,-17.28632 13.22083,-27.90209 l 0,-12.91336 -22.98272,0 0,8.8395 c 0,12.66014 -12.02881,23.29018 -27.51779,23.29018 l -49.7318,-0.15373 z" />
  </g>
  <text
     sodipodi:linespacing="100%"
     style="font-size:19.75634766px;font-style:normal;font-variant:normal;font-weight:bold;font-stretch:normal;text-align:start;line-height:100%;writing-mode:lr-tb;text-anchor:start;fill:#ffffff;fill-opacity:1;stroke:none;font-family:Skia"
     xml:space="preserve"
     id="text2311"
     transform="scale(1.1483401,0.87082218)"
     y="997.7359"
     x="319.21054"><tspan
       id="tspan2313"
       y="997.7359"
       x="319.21054">from freedom came elegance</tspan></text>
</svg>
