<?xml version="1.0" encoding="utf-8"?>
<!-- Generator: Adobe Illustrator 17.0.0, SVG Export Plug-In . SVG Version: 6.00 Build 0)  -->
<!DOCTYPE svg PUBLIC "-//W3C//DTD SVG 1.1//EN" "http://www.w3.org/Graphics/SVG/1.1/DTD/svg11.dtd">
<svg version="1.1" id="Capa_1" xmlns="http://www.w3.org/2000/svg" xmlns:xlink="http://www.w3.org/1999/xlink" x="0px" y="0px"
	 width="792px" height="612px" viewBox="0 0 792 612" enable-background="new 0 0 792 612" xml:space="preserve">
<rect x="238.233" y="128.272" fill="#064F8C" width="185.235" height="14.933"/>
<polygon fill="#064F8C" points="530.84,258.044 530.84,424.791 456.177,424.791 456.177,439.723 530.84,439.723 530.84,439.723 
	545.773,439.723 545.773,258.044 "/>
<rect x="461.51" y="106.584" fill="#39A0C7" width="34.487" height="34.487"/>
<rect x="518.636" y="200.331" fill="#39A0C7" width="35.314" height="35.314"/>
<rect x="449.778" y="222.134" fill="#C3E3EA" width="26.31" height="26.31"/>
<rect x="476.087" y="176.27" fill="#064F8C" width="27.021" height="27.021"/>
<rect x="433.453" y="158.467" fill="#0673B3" width="22.454" height="22.454"/>
<rect x="525.983" y="123.574" fill="#0C6FB3" width="42.497" height="42.497"/>
<polygon fill="#F7963E" points="474.314,407.583 461.814,407.583 461.814,336.333 383.48,336.333 383.48,257.999 303.896,257.999 
	303.896,177.999 231.814,177.999 231.814,165.499 316.396,165.499 316.396,245.499 395.98,245.499 395.98,323.833 474.314,323.833 
	"/>
<polygon fill="#F7963E" points="435.98,366.748 416.396,366.748 416.396,353.415 406.396,353.415 406.396,366.748 335.851,366.748 
	335.851,298.832 360.98,298.832 360.98,288.832 335.851,288.832 330.851,288.832 264.73,288.832 264.73,227.135 285.98,227.135 
	285.98,217.135 264.73,217.135 264.73,193.415 254.73,193.415 254.73,217.135 240.564,217.135 240.564,227.135 254.73,227.135 
	254.73,288.832 227.23,288.832 227.23,298.832 254.73,298.832 254.73,347.165 264.73,347.165 264.73,298.832 325.851,298.832 
	325.851,366.748 291.814,366.748 291.814,376.748 325.851,376.748 325.851,432.998 335.851,432.998 335.851,376.748 
	406.396,376.748 406.396,395.083 416.396,395.083 416.396,376.748 435.98,376.748 "/>
<g>
	<circle fill="#E87F25" cx="240.563" cy="224.249" r="15.417"/>
	<circle fill="#E87F25" cx="259.73" cy="310.917" r="12.917"/>
	<circle fill="#E87F25" cx="330.85" cy="295.917" r="18.75"/>
	<circle fill="#E87F25" cx="310.147" cy="370.915" r="15"/>
	<circle fill="#E87F25" cx="411.397" cy="397.999" r="21.667"/>
</g>
<g>
	<path fill="#ABAAAB" d="M228.169,476.25v-26.37h17.789v3.113h-14.299v8.167h12.375v3.11h-12.375v11.98H228.169z"/>
	<path fill="#ABAAAB" d="M262.541,473.894c-1.199,1.018-2.352,1.738-3.462,2.158s-2.3,0.63-3.571,0.63
		c-2.098,0-3.711-0.513-4.839-1.538c-1.127-1.025-1.691-2.336-1.691-3.931c0-0.935,0.214-1.79,0.638-2.563
		c0.426-0.774,0.984-1.394,1.674-1.86c0.69-0.469,1.466-0.823,2.329-1.062c0.636-0.168,1.594-0.33,2.878-0.486
		c2.614-0.312,4.539-0.684,5.773-1.116c0.012-0.442,0.018-0.725,0.018-0.845c0-1.318-0.305-2.249-0.917-2.788
		c-0.828-0.73-2.057-1.096-3.688-1.096c-1.523,0-2.646,0.266-3.373,0.801c-0.725,0.532-1.262,1.477-1.609,2.832l-3.167-0.432
		c0.288-1.355,0.762-2.449,1.421-3.281c0.659-0.835,1.613-1.477,2.86-1.926s2.692-0.674,4.335-0.674
		c1.631,0,2.957,0.193,3.976,0.576c1.018,0.383,1.768,0.867,2.247,1.448s0.815,1.316,1.008,2.202
		c0.107,0.552,0.161,1.548,0.161,2.986v4.316c0,3.01,0.07,4.915,0.208,5.713c0.137,0.796,0.41,1.56,0.818,2.292h-3.381
		C262.854,475.578,262.638,474.792,262.541,473.894z M262.271,466.662c-1.174,0.481-2.937,0.889-5.288,1.223
		c-1.331,0.193-2.272,0.408-2.823,0.647c-0.552,0.242-0.978,0.591-1.277,1.052c-0.3,0.461-0.45,0.974-0.45,1.538
		c0,0.864,0.327,1.584,0.981,2.158c0.653,0.576,1.609,0.864,2.869,0.864c1.246,0,2.356-0.273,3.328-0.818
		c0.97-0.547,1.685-1.292,2.14-2.239c0.348-0.732,0.521-1.812,0.521-3.24V466.662z"/>
	<path fill="#ABAAAB" d="M283.028,469.253l3.185,0.415c-0.348,2.192-1.239,3.911-2.672,5.151c-1.433,1.243-3.192,1.863-5.278,1.863
		c-2.615,0-4.716-0.854-6.305-2.563s-2.383-4.158-2.383-7.349c0-2.061,0.342-3.867,1.025-5.413c0.684-1.548,1.724-2.708,3.12-3.481
		s2.917-1.16,4.559-1.16c2.075,0,3.772,0.525,5.09,1.575c1.32,1.047,2.164,2.539,2.537,4.468l-3.148,0.486
		c-0.299-1.282-0.83-2.249-1.592-2.896c-0.76-0.647-1.681-0.972-2.76-0.972c-1.631,0-2.957,0.586-3.976,1.755
		s-1.528,3.018-1.528,5.549c0,2.566,0.491,4.429,1.475,5.593c0.983,1.162,2.267,1.743,3.849,1.743c1.271,0,2.333-0.388,3.184-1.167
		C282.262,472.07,282.801,470.871,283.028,469.253z"/>
	<path fill="#ABAAAB" d="M301.502,476.25v-2.805c-1.487,2.158-3.508,3.237-6.062,3.237c-1.127,0-2.179-0.217-3.157-0.647
		c-0.978-0.432-1.703-0.974-2.177-1.628s-0.807-1.455-0.999-2.402c-0.132-0.635-0.198-1.643-0.198-3.02v-11.836h3.239v10.593
		c0,1.692,0.065,2.83,0.198,3.418c0.204,0.852,0.635,1.521,1.295,2.004c0.659,0.486,1.475,0.73,2.445,0.73
		c0.972,0,1.884-0.249,2.734-0.747c0.852-0.498,1.454-1.174,1.808-2.031c0.354-0.859,0.531-2.102,0.531-3.733v-10.234h3.237v19.102
		H301.502z"/>
	<path fill="#ABAAAB" d="M309.398,476.25v-26.37h3.239v26.37H309.398z"/>
	<path fill="#ABAAAB" d="M324.723,473.354l0.468,2.859c-0.912,0.193-1.726,0.288-2.446,0.288c-1.176,0-2.086-0.186-2.734-0.557
		c-0.647-0.371-1.102-0.862-1.366-1.467c-0.265-0.605-0.397-1.88-0.397-3.821v-10.991h-2.374v-2.517h2.374v-4.731l3.22-1.943v6.675
		h3.256v2.517h-3.256v11.169c0,0.925,0.057,1.519,0.171,1.782s0.299,0.474,0.558,0.63c0.258,0.156,0.626,0.232,1.106,0.232
		C323.662,473.479,324.135,473.437,324.723,473.354z"/>
	<path fill="#ABAAAB" d="M340.353,473.894c-1.199,1.018-2.352,1.738-3.462,2.158s-2.3,0.63-3.571,0.63
		c-2.098,0-3.711-0.513-4.839-1.538c-1.127-1.025-1.691-2.336-1.691-3.931c0-0.935,0.214-1.79,0.638-2.563
		c0.426-0.774,0.984-1.394,1.674-1.86c0.69-0.469,1.466-0.823,2.329-1.062c0.636-0.168,1.594-0.33,2.878-0.486
		c2.614-0.312,4.539-0.684,5.773-1.116c0.012-0.442,0.018-0.725,0.018-0.845c0-1.318-0.305-2.249-0.917-2.788
		c-0.828-0.73-2.057-1.096-3.688-1.096c-1.523,0-2.646,0.266-3.373,0.801c-0.725,0.532-1.262,1.477-1.609,2.832l-3.167-0.432
		c0.288-1.355,0.762-2.449,1.421-3.281c0.659-0.835,1.613-1.477,2.86-1.926s2.692-0.674,4.335-0.674
		c1.631,0,2.957,0.193,3.976,0.576c1.018,0.383,1.768,0.867,2.247,1.448s0.815,1.316,1.008,2.202
		c0.107,0.552,0.161,1.548,0.161,2.986v4.316c0,3.01,0.07,4.915,0.208,5.713c0.137,0.796,0.41,1.56,0.818,2.292h-3.381
		C340.665,475.578,340.449,474.792,340.353,473.894z M340.083,466.662c-1.174,0.481-2.937,0.889-5.288,1.223
		c-1.331,0.193-2.272,0.408-2.823,0.647c-0.552,0.242-0.978,0.591-1.277,1.052c-0.3,0.461-0.45,0.974-0.45,1.538
		c0,0.864,0.327,1.584,0.981,2.158c0.653,0.576,1.609,0.864,2.869,0.864c1.246,0,2.356-0.273,3.328-0.818
		c0.97-0.547,1.685-1.292,2.14-2.239c0.348-0.732,0.521-1.812,0.521-3.24V466.662z"/>
	<path fill="#ABAAAB" d="M360.77,476.25v-2.41c-1.212,1.895-2.993,2.842-5.343,2.842c-1.522,0-2.922-0.42-4.199-1.26
		s-2.267-2.012-2.969-3.516c-0.701-1.506-1.052-3.235-1.052-5.19c0-1.907,0.319-3.635,0.953-5.188
		c0.636-1.553,1.589-2.744,2.86-3.572s2.692-1.24,4.263-1.24c1.151,0,2.177,0.242,3.076,0.728s1.631,1.118,2.195,1.899v-9.463h3.219
		v26.37H360.77z M350.534,466.716c0,2.446,0.516,4.275,1.548,5.486c1.03,1.211,2.247,1.816,3.651,1.816
		c1.415,0,2.617-0.576,3.606-1.736c0.99-1.155,1.484-2.922,1.484-5.295c0-2.615-0.504-4.534-1.511-5.757s-2.249-1.833-3.723-1.833
		c-1.439,0-2.642,0.586-3.606,1.763C351.018,462.334,350.534,464.187,350.534,466.716z"/>
	<path fill="#ABAAAB" d="M391.491,476.25v-2.41c-1.212,1.895-2.993,2.842-5.343,2.842c-1.522,0-2.922-0.42-4.199-1.26
		s-2.267-2.012-2.969-3.516c-0.701-1.506-1.052-3.235-1.052-5.19c0-1.907,0.319-3.635,0.953-5.188
		c0.636-1.553,1.589-2.744,2.86-3.572s2.692-1.24,4.263-1.24c1.151,0,2.177,0.242,3.076,0.728s1.631,1.118,2.195,1.899v-9.463h3.219
		v26.37H391.491z M381.256,466.716c0,2.446,0.516,4.275,1.548,5.486c1.03,1.211,2.247,1.816,3.651,1.816
		c1.415,0,2.617-0.576,3.606-1.736c0.99-1.155,1.484-2.922,1.484-5.295c0-2.615-0.504-4.534-1.511-5.757s-2.249-1.833-3.723-1.833
		c-1.439,0-2.642,0.586-3.606,1.763C381.739,462.334,381.256,464.187,381.256,466.716z"/>
	<path fill="#ABAAAB" d="M412.661,470.097l3.346,0.415c-0.527,1.953-1.505,3.472-2.932,4.551s-3.25,1.619-5.468,1.619
		c-2.794,0-5.01-0.862-6.647-2.581c-1.636-1.721-2.455-4.136-2.455-7.241c0-3.213,0.828-5.708,2.483-7.483
		c1.654-1.775,3.8-2.661,6.439-2.661c2.554,0,4.64,0.869,6.259,2.607c1.62,1.738,2.429,4.185,2.429,7.339
		c0,0.193-0.006,0.481-0.018,0.864h-14.246c0.12,2.097,0.713,3.704,1.781,4.819c1.067,1.116,2.397,1.672,3.993,1.672
		c1.187,0,2.2-0.31,3.04-0.935C411.504,472.461,412.17,471.465,412.661,470.097z M402.031,464.863h10.667
		c-0.144-1.606-0.552-2.81-1.223-3.613c-1.031-1.248-2.368-1.873-4.011-1.873c-1.487,0-2.737,0.498-3.75,1.494
		S402.14,463.198,402.031,464.863z"/>
</g>
<g>
	<path d="M226.754,506.848v-15.801h11.716v2.671h-8.527v3.503h7.933v2.664h-7.933v4.299h8.828v2.664H226.754z"/>
	<path d="M240.669,501.706l3.105-0.303c0.187,1.042,0.565,1.809,1.136,2.297s1.342,0.732,2.312,0.732
		c1.028,0,1.802-0.217,2.323-0.652s0.781-0.942,0.781-1.526c0-0.374-0.11-0.691-0.328-0.955c-0.22-0.261-0.602-0.488-1.149-0.684
		c-0.374-0.129-1.224-0.359-2.554-0.688c-1.71-0.425-2.91-0.945-3.601-1.565c-0.969-0.869-1.455-1.929-1.455-3.179
		c0-0.806,0.228-1.558,0.685-2.258s1.115-1.235,1.973-1.602s1.896-0.549,3.11-0.549c1.982,0,3.475,0.435,4.478,1.304
		c1.003,0.872,1.53,2.031,1.58,3.481l-3.191,0.142c-0.137-0.813-0.428-1.396-0.878-1.753c-0.449-0.354-1.123-0.532-2.021-0.532
		c-0.927,0-1.653,0.19-2.178,0.571c-0.337,0.244-0.507,0.571-0.507,0.981c0,0.374,0.159,0.693,0.475,0.959
		c0.402,0.337,1.379,0.688,2.932,1.055c1.552,0.366,2.7,0.747,3.444,1.138s1.326,0.928,1.746,1.606
		c0.421,0.679,0.631,1.519,0.631,2.517c0,0.906-0.251,1.753-0.754,2.544s-1.215,1.377-2.135,1.763
		c-0.919,0.383-2.065,0.576-3.438,0.576c-1.998,0-3.533-0.461-4.603-1.387C241.517,504.819,240.877,503.474,240.669,501.706z"/>
	<path d="M259.759,506.848v-13.13h-4.689v-2.671h12.557v2.671h-4.679v13.13H259.759z"/>
	<path d="M282.297,506.848h-3.47l-1.379-3.589h-6.317l-1.304,3.589h-3.385l6.155-15.801h3.374L282.297,506.848z M276.423,500.595
		l-2.178-5.864l-2.134,5.864H276.423z"/>
	<path d="M283.979,491.047h5.831c1.315,0,2.317,0.1,3.008,0.3c0.927,0.273,1.72,0.759,2.382,1.455
		c0.662,0.698,1.165,1.55,1.509,2.561c0.345,1.008,0.518,2.253,0.518,3.735c0,1.299-0.161,2.422-0.485,3.362
		c-0.396,1.15-0.959,2.08-1.693,2.793c-0.553,0.537-1.3,0.959-2.241,1.26c-0.704,0.222-1.646,0.334-2.825,0.334h-6.003V491.047z
		 M287.17,493.718v10.466h2.382c0.891,0,1.534-0.049,1.93-0.149c0.516-0.129,0.946-0.349,1.288-0.659
		c0.341-0.308,0.62-0.815,0.835-1.523c0.216-0.708,0.323-1.672,0.323-2.896c0-1.221-0.107-2.158-0.323-2.812
		c-0.215-0.654-0.518-1.165-0.906-1.531c-0.387-0.366-0.88-0.615-1.476-0.745c-0.446-0.1-1.32-0.151-2.62-0.151H287.17z"/>
	<path d="M299.469,490.141l1.488-3.223h3.395l-2.964,3.223H299.469z M299.835,506.848v-15.801h3.191v15.801H299.835z"/>
	<path d="M305.256,501.706l3.105-0.303c0.187,1.042,0.565,1.809,1.136,2.297s1.342,0.732,2.312,0.732
		c1.028,0,1.802-0.217,2.323-0.652s0.781-0.942,0.781-1.526c0-0.374-0.11-0.691-0.328-0.955c-0.22-0.261-0.602-0.488-1.149-0.684
		c-0.374-0.129-1.224-0.359-2.554-0.688c-1.71-0.425-2.91-0.945-3.601-1.565c-0.969-0.869-1.455-1.929-1.455-3.179
		c0-0.806,0.228-1.558,0.685-2.258s1.115-1.235,1.973-1.602s1.896-0.549,3.11-0.549c1.982,0,3.475,0.435,4.478,1.304
		c1.003,0.872,1.53,2.031,1.58,3.481l-3.191,0.142c-0.137-0.813-0.428-1.396-0.878-1.753c-0.449-0.354-1.123-0.532-2.021-0.532
		c-0.927,0-1.653,0.19-2.178,0.571c-0.337,0.244-0.507,0.571-0.507,0.981c0,0.374,0.159,0.693,0.475,0.959
		c0.402,0.337,1.379,0.688,2.932,1.055c1.552,0.366,2.7,0.747,3.444,1.138s1.326,0.928,1.746,1.606
		c0.421,0.679,0.631,1.519,0.631,2.517c0,0.906-0.251,1.753-0.754,2.544s-1.215,1.377-2.135,1.763
		c-0.919,0.383-2.065,0.576-3.438,0.576c-1.998,0-3.533-0.461-4.603-1.387C306.104,504.819,305.465,503.474,305.256,501.706z"/>
	<path d="M324.347,506.848v-13.13h-4.689v-2.671h12.557v2.671h-4.679v13.13H324.347z"/>
	<path d="M334.176,506.848v-15.801h3.191v15.801H334.176z"/>
	<path d="M350.517,501.037l3.094,0.981c-0.475,1.724-1.263,3.005-2.367,3.843c-1.102,0.837-2.502,1.255-4.198,1.255
		c-2.098,0-3.823-0.715-5.173-2.148c-1.351-1.436-2.026-3.394-2.026-5.881c0-2.629,0.679-4.673,2.036-6.128
		c1.359-1.455,3.145-2.183,5.358-2.183c1.932,0,3.503,0.571,4.711,1.714c0.718,0.676,1.257,1.646,1.616,2.91l-3.158,0.754
		c-0.187-0.818-0.576-1.465-1.169-1.938c-0.593-0.476-1.313-0.713-2.161-0.713c-1.172,0-2.123,0.42-2.852,1.262
		c-0.73,0.84-1.094,2.202-1.094,4.084c0,1.997,0.359,3.42,1.078,4.268c0.718,0.85,1.653,1.272,2.803,1.272
		c0.847,0,1.577-0.269,2.188-0.808S350.251,502.195,350.517,501.037z"/>
	<path d="M370.598,506.848h-3.47l-1.379-3.589h-6.317l-1.304,3.589h-3.385l6.155-15.801h3.374L370.598,506.848z M364.724,500.595
		l-2.178-5.864l-2.134,5.864H364.724z"/>
	<path d="M377.605,506.848v-15.801h11.716v2.671h-8.527v3.503h7.933v2.664h-7.933v4.299h8.828v2.664H377.605z"/>
	<path d="M398.365,506.848v-15.801h3.191v15.801H398.365z"/>
	<path d="M404.627,506.848v-15.801h3.104l6.467,10.552v-10.552h2.965v15.801h-3.202l-6.371-10.305v10.305H404.627z"/>
	<path d="M420.559,506.848v-15.801h10.834v2.671h-7.643v3.74h6.597v2.673h-6.597v6.716H420.559z"/>
	<path d="M433.375,499.043c0-1.609,0.24-2.959,0.721-4.053c0.36-0.803,0.851-1.526,1.472-2.166s1.302-1.113,2.042-1.423
		c0.985-0.415,2.12-0.625,3.406-0.625c2.329,0,4.192,0.723,5.59,2.168c1.398,1.443,2.096,3.452,2.096,6.025
		c0,2.551-0.693,4.546-2.08,5.986s-3.241,2.161-5.562,2.161c-2.35,0-4.219-0.715-5.605-2.148
		C434.068,503.532,433.375,501.56,433.375,499.043z M436.662,498.935c0,1.79,0.414,3.147,1.24,4.07
		c0.825,0.923,1.875,1.384,3.147,1.384s2.316-0.457,3.131-1.375c0.815-0.916,1.223-2.29,1.223-4.121c0-1.812-0.397-3.162-1.19-4.053
		c-0.795-0.891-1.849-1.338-3.164-1.338s-2.375,0.452-3.18,1.353C437.065,495.759,436.662,497.119,436.662,498.935z"/>
	<path d="M451.205,506.848v-15.801h6.715c1.688,0,2.915,0.142,3.68,0.425s1.378,0.789,1.838,1.514c0.459,0.728,0.69,1.558,0.69,2.49
		c0,1.187-0.349,2.166-1.046,2.937c-0.697,0.774-1.738,1.26-3.125,1.46c0.69,0.403,1.259,0.845,1.708,1.328
		c0.449,0.481,1.055,1.335,1.816,2.563l1.93,3.083h-3.816l-2.307-3.438c-0.819-1.23-1.379-2.004-1.681-2.324
		c-0.303-0.32-0.623-0.54-0.959-0.657c-0.338-0.12-0.874-0.178-1.606-0.178h-0.647v6.597H451.205z M454.394,497.729h2.361
		c1.531,0,2.487-0.066,2.867-0.195s0.679-0.352,0.895-0.667c0.215-0.317,0.323-0.713,0.323-1.187c0-0.532-0.143-0.962-0.426-1.289
		c-0.284-0.327-0.685-0.532-1.202-0.618c-0.259-0.037-1.034-0.056-2.328-0.056h-2.49V497.729z"/>
	<path d="M467.091,506.848v-15.801h4.775l2.867,10.779l2.834-10.779h4.786v15.801h-2.964v-12.439l-3.137,12.439h-3.073
		l-3.125-12.439v12.439H467.091z"/>
	<path d="M499.774,506.848h-3.47l-1.379-3.589h-6.317l-1.304,3.589h-3.385l6.155-15.801h3.374L499.774,506.848z M493.9,500.595
		l-2.178-5.864l-2.134,5.864H493.9z M489.89,490.141l1.487-3.223h3.396l-2.964,3.223H489.89z"/>
	<path d="M505.023,506.848v-13.13h-4.689v-2.671h12.557v2.671h-4.679v13.13H505.023z"/>
	<path d="M514.853,506.848v-15.801h3.191v15.801H514.853z"/>
	<path d="M531.194,501.037l3.094,0.981c-0.475,1.724-1.263,3.005-2.367,3.843c-1.102,0.837-2.502,1.255-4.198,1.255
		c-2.098,0-3.823-0.715-5.173-2.148c-1.351-1.436-2.026-3.394-2.026-5.881c0-2.629,0.679-4.673,2.036-6.128
		c1.359-1.455,3.145-2.183,5.358-2.183c1.932,0,3.503,0.571,4.711,1.714c0.718,0.676,1.257,1.646,1.616,2.91l-3.158,0.754
		c-0.187-0.818-0.576-1.465-1.169-1.938c-0.593-0.476-1.313-0.713-2.161-0.713c-1.172,0-2.123,0.42-2.852,1.262
		c-0.73,0.84-1.094,2.202-1.094,4.084c0,1.997,0.359,3.42,1.078,4.268c0.718,0.85,1.653,1.272,2.803,1.272
		c0.847,0,1.577-0.269,2.188-0.808S530.927,502.195,531.194,501.037z"/>
	<path d="M551.275,506.848h-3.47l-1.379-3.589h-6.317l-1.304,3.589h-3.385l6.155-15.801h3.374L551.275,506.848z M545.401,500.595
		l-2.178-5.864l-2.134,5.864H545.401z"/>
</g>
</svg>
