<?xml version="1.0" encoding="UTF-8" standalone="no"?>
<!-- Created with Inkscape (http://www.inkscape.org/) -->

<svg
   xmlns:dc="http://purl.org/dc/elements/1.1/"
   xmlns:cc="http://creativecommons.org/ns#"
   xmlns:rdf="http://www.w3.org/1999/02/22-rdf-syntax-ns#"
   xmlns:svg="http://www.w3.org/2000/svg"
   xmlns="http://www.w3.org/2000/svg"
   xmlns:xlink="http://www.w3.org/1999/xlink"
   xmlns:sodipodi="http://sodipodi.sourceforge.net/DTD/sodipodi-0.dtd"
   xmlns:inkscape="http://www.inkscape.org/namespaces/inkscape"
   width="219mm"
   height="35mm"
   viewBox="0 0 775.98476 124.01577"
   id="svg4190"
   version="1.1"
   inkscape:version="0.91 r13725"
   sodipodi:docname="logo_header.svg">
  <defs
     id="defs4192">
    <path
       sodipodi:nodetypes="ccc"
       inkscape:connector-curvature="0"
       id="path4720"
       d="M 628.11954,397.27829 C 609.31637,249.99046 795.41522,256.79189 791.83614,372.88235 Z"
       style="fill:none;fill-rule:evenodd;stroke:none;stroke-width:1px;stroke-linecap:butt;stroke-linejoin:miter;stroke-opacity:1" />
  </defs>
  <sodipodi:namedview
     id="base"
     pagecolor="#ffffff"
     bordercolor="#666666"
     borderopacity="1.0"
     inkscape:pageopacity="0.0"
     inkscape:pageshadow="2"
     inkscape:zoom="0.35"
     inkscape:cx="343.90326"
     inkscape:cy="-39.814581"
     inkscape:document-units="px"
     inkscape:current-layer="layer1"
     showgrid="false"
     inkscape:window-width="1366"
     inkscape:window-height="705"
     inkscape:window-x="-8"
     inkscape:window-y="32"
     inkscape:window-maximized="1"
     units="mm"
     width="45mm" />
  <metadata
     id="metadata4195">
    <rdf:RDF>
      <cc:Work
         rdf:about="">
        <dc:format>image/svg+xml</dc:format>
        <dc:type
           rdf:resource="http://purl.org/dc/dcmitype/StillImage" />
        <dc:title></dc:title>
      </cc:Work>
    </rdf:RDF>
  </metadata>
  <g
     inkscape:label="Capa 1"
     inkscape:groupmode="layer"
     id="layer1"
     transform="translate(0,-928.34664)">
    <text
       xml:space="preserve"
       style="font-style:normal;font-variant:normal;font-weight:bold;font-stretch:normal;font-size:54.26988602px;line-height:125%;font-family:Consolas;-inkscape-font-specification:'Consolas Bold';letter-spacing:0px;word-spacing:0px;fill:#50989e;fill-opacity:1;stroke:none;stroke-width:1px;stroke-linecap:butt;stroke-linejoin:miter;stroke-opacity:1"
       x="124.87566"
       y="868.9245"
       id="text4725"
       sodipodi:linespacing="125%"
       transform="scale(0.88125432,1.1347462)"><tspan
         sodipodi:role="line"
         id="tspan4727"
         x="124.87566"
         y="868.9245"
         style="font-style:normal;font-variant:normal;font-weight:bold;font-stretch:normal;font-size:68.19202423px;line-height:125%;font-family:Consolas;-inkscape-font-specification:'Consolas Bold';text-align:start;writing-mode:lr-tb;text-anchor:start"><tspan
           style="fill:#ffffff"
           id="tspan4804">~$&gt;</tspan><tspan
           style="fill:#cfc91d;fill-opacity:1"
           id="tspan4808">Install-Fest_2016</tspan></tspan></text>
    <g
       id="g4737"
       transform="matrix(0.24264813,0,0,0.23515685,-122.24804,870.89591)">
      <path
         sodipodi:nodetypes="aacccaccccscccccacca"
         inkscape:connector-curvature="0"
         id="path3347"
         d="m 710.45124,572.39362 c 12.42617,-0.98788 25.53913,-3.61686 35.86042,-10.6066 12.60555,-8.53666 22.33221,-19.12741 28.28427,-35.86042 l 24.74874,-77.27666 14.39463,-31.81981 c 0,0 6.8707,-10.28017 8.3338,-16.16244 3.5357,-14.21507 2.6002,-28.64771 0.5051,-43.94164 -0.8712,-12.12183 -4.8592,-26.01143 -11.6168,-36.36549 -3.2738,-7.4389 -8.6604,-14.17356 -13.88958,-20.96067 -10.5322,-12.46496 -23.1014,-22.94035 -40.65863,-30.05203 -15.82572,-5.49647 -30.9944,-10.16698 -47.47717,-9.09137 -30.39445,1.98344 -50.90851,4.59915 -82.32744,39.64848 -17.97497,20.01259 -25.47325,37.50995 -26.5165,69.19545 -1.86007,19.7418 -0.45596,32.7163 10.6066,52.02286 9.32784,18.17816 15.7722,35.42422 20.45559,52.27539 l 18.94036,54.04316 c 0,0 5.66935,12.38325 9.84899,17.67767 5.16831,6.5468 10.08888,11.75903 18.43528,16.92006 5.53368,3.49389 9.8177,6.32597 18.43528,8.5863 0,0 9.06776,2.13102 13.63706,1.76776 z"
         style="fill:#f36d21;fill-opacity:1;fill-rule:evenodd;stroke:none;stroke-width:1px;stroke-linecap:butt;stroke-linejoin:miter;stroke-opacity:1" />
      <path
         sodipodi:nodetypes="caccaaaaaaaaaaaaacaaaaaaaaaaaaaaaaacc"
         inkscape:connector-curvature="0"
         id="path4188"
         d="m 666.40365,467.5903 c 0,0 2.33849,7.91842 3.53553,11.86928 2.36259,7.79776 7.19734,23.35979 7.19734,23.35979 l 7.82868,21.33947 c 0,0 6.04364,9.30312 10.35406,12.6269 3.51987,2.71418 7.76775,4.66241 12.12183,5.55584 3.29948,0.67703 6.85842,0.65695 10.10153,-0.25254 3.73985,-1.04879 6.9987,-3.47194 10.10152,-5.80837 2.90097,-2.18444 5.60503,-4.70514 7.82869,-7.57615 2.19298,-2.8314 3.85663,-6.06777 5.3033,-9.34391 3.39801,-7.69519 5.24988,-15.98411 7.82868,-23.99112 3.49307,-10.84579 6.60242,-21.81833 10.35406,-32.57742 3.58784,-10.28933 7.54753,-20.44849 11.61676,-30.55712 2.9719,-7.38268 6.00546,-14.74648 9.34391,-21.97081 2.28985,-4.95519 6.06945,-9.33455 7.3236,-14.64722 1.89536,-8.02889 0.62903,-16.52317 0,-24.74873 -0.3377,-4.41594 -0.88634,-8.85079 -2.0203,-13.13199 -1.56911,-5.92407 -6.56599,-17.17259 -6.56599,-17.17259 0,0 -6.50685,-10.56076 -10.85914,-14.89975 -4.26902,-4.25598 -9.468,-7.52219 -14.64722,-10.6066 -6.01692,-3.5833 -12.25697,-6.99956 -18.94036,-9.09137 -6.59052,-2.06275 -13.55297,-3.07347 -20.45558,-3.283 -6.84855,-0.20789 -13.7975,0.40299 -20.45559,2.0203 -6.42539,1.56079 -12.62304,4.17092 -18.43529,7.32361 -5.89224,3.19608 -11.54657,7.00894 -16.41498,11.61675 -4.91731,4.65409 -9.0786,10.14363 -12.6269,15.90991 -3.15827,5.13244 -5.88455,10.63094 -7.57615,16.41498 -1.90813,6.52441 -2.25438,13.42553 -2.77792,20.20305 -0.3696,4.78471 -1.01895,9.6573 -0.25254,14.39467 0.76959,4.75701 2.87801,9.21732 4.79823,13.63706 2.53562,5.83618 6.02317,11.21371 8.83883,16.92006 3.53293,7.16 7.2445,14.26277 10.10153,21.71828 2.2678,5.91789 3.73362,12.11282 5.55584,18.18274 1.96828,6.55643 3.83632,13.14269 5.80838,19.69798 2.23223,7.42012 4.38979,14.86521 6.81853,22.22335 2.29492,6.95271 7.3236,20.70813 7.3236,20.70813 l 0.63135,0.50508"
         style="fill:#ffffff;fill-opacity:1;fill-rule:evenodd;stroke:none;stroke-width:1px;stroke-linecap:butt;stroke-linejoin:miter;stroke-opacity:1" />
      <ellipse
         ry="5.0507627"
         rx="33.840111"
         cy="588.72791"
         cx="712.77753"
         id="path4192"
         style="opacity:1;fill:#50989e;fill-opacity:1;stroke:none;stroke-width:2.4000001;stroke-linecap:square;stroke-linejoin:miter;stroke-miterlimit:4;stroke-dasharray:none;stroke-opacity:1" />
      <ellipse
         style="opacity:1;fill:#50989e;fill-opacity:1;stroke:none;stroke-width:2.4000001;stroke-linecap:square;stroke-linejoin:miter;stroke-miterlimit:4;stroke-dasharray:none;stroke-opacity:1"
         id="ellipse4194"
         cx="713.28259"
         cy="602.36499"
         rx="33.840111"
         ry="5.0507627" />
      <g
         style="fill:#247e85;fill-opacity:1"
         transform="matrix(0,0.29643673,-0.29643673,0,902.6832,490.03254)"
         id="g4220">
        <path
           inkscape:connector-curvature="0"
           style="fill:#247e85;fill-opacity:1"
           sodipodi:nodetypes="cscssccccccccsccccccccscccccssccccsscsccscscccssccccscccccccccsscccccccccscsscccscscsccccsccccccscsscccscccsccscccccccsccccccsscscccccccccccccsccccccccscssccssccccccsscccccssccscccscccscccccccsccccccccccscssscc"
           d="m -458.03232,855.53152 c -5.58792,-2.76588 -6.79494,-5.66488 -7.25172,-17.41901 l -0.38551,-10.06419 -5.4734,-1.45191 c -10.30317,-2.73311 -8.84796,-3.28581 -13.68288,5.19982 -4.78925,8.40573 -7.18434,10.85678 -11.82943,12.10744 -4.37519,1.17829 -6.13952,0.62771 -16.24605,-5.0691 -10.39209,-5.85709 -13.64531,-8.75388 -14.91144,-13.27691 -1.23562,-4.41293 -0.28666,-7.55771 4.96729,-16.47398 l 4.14671,-7.03668 -5.49016,-5.54981 -5.49016,-5.54981 -7.41374,4.28037 c -9.20587,5.3147 -11.78286,6.08631 -16.20058,4.84946 -4.60054,-1.28822 -7.00152,-3.90792 -12.69438,-13.85428 -5.86483,-10.24756 -6.78703,-13.08691 -5.63745,-17.35734 1.24154,-4.61269 3.71184,-7.01441 12.10321,-11.76757 6.97482,-3.95137 7.5393,-4.44792 7.10922,-6.25496 -0.25702,-1.07943 -1.12095,-4.42563 -1.91972,-7.43565 l -1.45209,-5.47304 -10.06382,-0.39145 c -11.80661,-0.45866 -14.70689,-1.67522 -17.43614,-7.31303 -1.40564,-2.90213 -1.61915,-4.81595 -1.61915,-14.46 0,-11.7766 0.7216,-15.10218 4.06183,-18.65403 2.67383,-2.84634 6.51915,-3.68496 16.03635,-3.49735 l 8.76106,0.17299 0.86,-3.33884 c 0.47448,-1.83613 1.36709,-5.15195 1.98894,-7.36826 0.62275,-2.21632 1.13084,-4.20084 1.13084,-4.41036 0,-0.20955 -3.65459,-2.51273 -8.12146,-5.11862 -9.28209,-5.41468 -11.51001,-8.08538 -11.69891,-14.02532 -0.0989,-2.82922 0.50413,-4.87671 2.54146,-8.77266 11.5645,-22.11161 16.25783,-24.37984 31.66876,-15.3104 l 7.69046,4.52653 5.37932,-5.33772 c 2.95755,-2.93563 5.37841,-5.58314 5.37841,-5.88324 0,-0.3005 -1.74667,-3.57081 -3.88288,-7.26829 -2.13512,-3.69766 -4.27927,-8.0491 -4.7655,-9.67038 -1.23069,-4.10933 0.22735,-9.17751 3.52294,-12.24902 3.22745,-3.00744 19.02225,-11.98501 22.20551,-12.62185 6.87706,-1.3753 11.44096,1.92911 17.46173,12.64118 2.2883,4.07141 4.51253,7.27419 4.94243,7.11769 0.42505,-0.15618 3.83446,-1.08547 7.5649,-2.06424 l 6.78206,-1.7794 0.25701,-10.32066 c 0.23723,-9.81251 0.35585,-10.45671 2.36048,-13.07862 3.55958,-4.66148 5.95577,-5.32372 19.26711,-5.32372 12.21091,0 14.90849,0.50612 17.98976,3.37492 3.5883,3.34178 4.22477,5.69139 4.20304,15.53888 0,5.07978 0.28666,9.42607 0.6623,9.65841 0.37562,0.23229 3.28176,1.10288 6.45582,1.93445 3.17498,0.83133 6.30669,1.71691 6.96101,1.96776 0.86989,0.33413 2.21135,-1.37718 4.99877,-6.36983 4.71506,-8.44274 7.58865,-11.57739 11.76114,-12.82732 4.69443,-1.40652 7.52733,-0.57134 17.51714,5.15877 10.44843,5.9937 11.92517,7.24325 13.73626,11.6212 l 1.35029,3.26611 5.00282,-4.78593 5.0019,-4.78594 -2.21135,-4.50867 c -2.08468,-4.25202 -2.34464,-4.484 -4.55893,-4.07896 -5.90422,1.07993 -12.66566,1.3501 -14.62588,0.5842 -2.79645,-1.09279 -4.30192,-4.20876 -6.17027,-12.76785 -2.47425,-11.33933 -0.62275,-14.36297 10.20817,-16.70393 l 6.16437,-1.33181 0.25702,-5.30974 0.257,-5.30973 -3.12656,-0.92128 c -6.00125,-1.76873 -10.49004,-4.07068 -11.78194,-6.04157 -1.74076,-2.65726 -1.57666,-7.01257 0.50413,-13.34227 2.42473,-7.38097 3.55462,-9.33788 6.17119,-10.69108 3.0623,-1.58368 5.93791,-1.49472 11.87877,0.36772 2.72631,0.85506 5.19062,1.55818 5.47636,1.5637 0.6623,0.0197 5.34379,-7.55882 5.34379,-8.63568 0,-0.44185 -1.53415,-2.45971 -3.40843,-4.484 -4.37114,-4.71855 -5.19153,-6.35861 -5.19153,-10.37699 0,-3.0728 0.38551,-3.64501 6.01505,-9.01053 6.89087,-6.5637 9.16924,-7.76318 13.27949,-6.99213 2.19754,0.41221 4.03901,1.74826 7.58386,5.50158 l 4.68155,4.95716 4.62908,-2.33709 c 4.44423,-2.24357 4.61232,-2.43633 4.17929,-4.82571 -2.82811,-15.63499 -1.5727,-17.61822 12.97405,-20.49881 5.6879,-1.12659 7.21895,-1.1864 9.21287,-0.3608 3.62089,1.49985 5.2904,4.22588 6.75149,11.02156 l 1.32657,6.17652 5.27659,0 5.27568,0 1.73877,-5.27751 c 3.47747,-10.56165 6.47662,-12.32395 16.18069,-9.50873 14.39943,4.17764 16.22819,6.9056 12.61227,18.81052 -0.90943,2.99234 -1.52426,5.54061 -1.36808,5.66304 1.98581,1.55619 7.75471,5.16465 8.24315,5.15637 0.35587,-0.007 2.86568,-1.90223 5.58498,-4.21391 5.51189,-4.68597 8.39137,-5.65015 12.16636,-4.07325 2.73127,1.14122 12.49849,11.76905 13.38627,14.56513 1.18322,3.73006 -0.3361,7.01845 -5.48317,11.897 l -4.98993,4.72555 2.31408,4.58324 c 1.2722,2.52083 2.5641,4.58323 2.87064,4.58323 0.30645,0 3.29962,-0.58915 6.65153,-1.30956 5.68384,-1.2214 6.27704,-1.22208 8.81942,-0.009 3.76726,1.79621 5.2696,4.66535 6.96801,13.30655 2.23491,11.36511 0.84022,13.63114 -10.00951,16.31067 l -6.75444,1.6673 0,5.26978 0,5.26997 5.34784,1.62429 c 6.45784,1.96132 9.09522,3.90092 10.30998,7.58073 0.79079,2.40981 0.63264,3.66342 -1.20005,9.56562 -2.74011,8.79696 -3.82654,10.81075 -6.61305,12.25178 -3.11275,1.60947 -5.60283,1.49451 -11.955,-0.5506 l -5.39424,-1.73739 -1.36018,1.80362 c -0.75124,0.99196 -1.99575,2.98295 -2.77178,4.42453 l -1.41157,2.62099 4.02906,4.63294 c 6.82956,7.85174 6.85829,11.56469 0.13846,18.038 -7.28524,7.01993 -9.13867,8.18074 -13.06298,8.18074 -3.2917,0 -3.85011,-0.33411 -8.83415,-5.28009 l -5.32114,-5.28009 -3.96187,2.00753 c -2.17857,1.10415 -4.1804,2.36177 -4.44718,2.79461 -0.26688,0.43198 0.10881,3.56142 0.84023,6.95236 1.27516,5.93331 1.26923,6.27907 -0.15815,9.19648 -1.80699,3.70024 -3.82839,4.71211 -13.27065,6.64085 -11.37966,2.32457 -13.72632,0.75719 -16.38634,-10.93577 l -1.26825,-5.57467 -4.62815,0 c -2.54643,0 -4.89309,-0.089 -5.21529,-0.19572 -0.3262,-0.10774 -1.50548,2.44332 -2.62835,5.66838 -2.61565,7.51242 -5.11053,10.16765 -9.53911,10.15421 -3.00302,-0.009 -13.74418,-2.96159 -16.87865,-4.63957 -0.96873,-0.51897 -0.63264,0.65043 1.25539,4.41109 2.86365,5.69011 3.14939,8.29821 1.37302,12.54913 -1.71801,4.11136 -2.9546,5.244 -10.47015,9.5901 -3.68515,2.13089 -7.11033,4.14597 -7.61037,4.47848 -0.67219,0.44383 -0.3361,2.57975 1.23068,8.02719 l 2.14212,7.42295 6.58727,0.0692 c 11.76518,0.12059 12.93152,0.27677 15.63904,2.10161 1.45112,0.97763 3.43807,2.96491 4.41662,4.41588 1.66365,2.46892 1.77732,3.43421 1.77732,15.05726 0,14.17886 -0.57334,16.41138 -5.13041,19.8894 -2.85683,2.18133 -3.28084,2.26124 -13.29329,2.50776 l -10.34257,0.25404 -1.61917,6.45563 c -0.88964,3.55056 -1.80301,6.9542 -2.02834,7.56397 -0.27677,0.76016 1.61126,2.21485 6.01598,4.62706 11.15412,6.10766 14.57838,10.46094 13.65415,17.35678 -0.49425,3.68128 -9.8138,20.37914 -13.09262,23.45746 -1.23661,1.16149 -3.74443,2.51439 -5.57117,3.00633 -4.3078,1.16 -7.18728,0.3005 -15.94153,-4.7539 -3.69693,-2.1355 -6.96801,-3.88252 -7.26848,-3.88252 -0.29654,0 -2.93287,2.40577 -5.85101,5.34601 l -5.30421,5.34618 4.5442,7.75011 c 4.18924,7.14458 4.5442,8.12128 4.5442,12.50199 0,6.61949 -1.89394,8.84465 -12.91973,15.18558 -10.67286,6.13712 -13.47022,7.20827 -17.12978,6.5591 -5.25082,-0.93117 -7.62326,-3.1295 -12.63694,-11.70682 -2.61749,-4.47921 -4.99196,-8.12753 -5.27457,-8.10746 -0.28666,0.0198 -3.50527,0.84418 -7.16077,1.83169 l -6.64564,1.79522 -0.44483,9.70075 c -0.57333,12.45376 -2.01453,15.46064 -8.74135,18.27145 -2.13421,0.89162 -5.76394,1.20231 -14.04557,1.20191 -9.75452,-5e-4 -11.5842,-0.20759 -14.46958,-1.63597 z m 32.23214,-71.85076 c 27.15254,-7.17956 47.81889,-29.97127 52.11234,-57.47362 1.20496,-7.71955 0.38551,-22.13002 -1.66069,-29.31952 -5.69674,-19.99066 -20.20423,-37.00795 -38.69808,-45.39416 -15.4275,-6.99544 -35.34728,-8.16896 -50.7352,-2.98884 -33.83573,11.39033 -54.52233,46.24106 -47.51511,80.04734 3.23242,15.59467 8.44973,25.30408 19.57458,36.42985 10.87446,10.87446 20.64057,16.21567 35.64738,19.49541 9.01513,1.97071 22.06558,1.63813 31.27476,-0.79674 z m 105.48583,-152.37312 c 0.68207,-1.88161 1.2376,-3.8549 1.2376,-4.38495 0,-0.52983 -1.84754,-2.19054 -4.10528,-3.68975 l -4.10621,-2.72593 -5.41799,4.56998 c -4.6786,3.94621 -5.85488,4.56979 -8.62076,4.56979 -1.76249,0 -3.98267,-0.54564 -4.93452,-1.2124 -3.17608,-2.22515 -9.93844,-9.79465 -11.19978,-12.53807 l -1.2465,-2.7101 -4.51143,7.93808 -4.51254,7.93827 5.47028,5.47046 5.47028,5.47083 7.73888,-4.382 c 8.43297,-4.77452 11.2482,-5.65383 15.52931,-4.85038 3.36295,0.63067 8.37958,4.9428 9.84454,8.46151 l 1.05473,2.53262 0.53379,-3.51834 c 0.29655,-1.935 1.09328,-5.05787 1.77337,-6.93966 z m 51.19546,-27.10099 c 10.62444,-2.50464 22.31229,-10.84869 28.723,-20.50802 4.74783,-7.15249 7.47506,-16.21733 7.56306,-25.13469 0.0989,-8.87779 -1.02706,-14.09068 -4.64896,-21.74892 -5.53361,-11.70148 -16.02954,-20.82652 -28.65304,-24.90824 -12.65186,-4.09148 -28.61438,-2.28517 -39.25962,4.44221 -14.67228,9.27196 -23.0653,24.13866 -23.0653,40.85585 0,8.89048 1.07252,13.65046 4.87229,21.62187 5.78566,12.13617 17.6694,21.82624 31.09434,25.35195 5.66709,1.48838 17.12572,1.50331 23.3746,0.0297 z"
           id="path26132-9-2" />
      </g>
      <ellipse
         transform="matrix(0,1,-1,0,0,0)"
         ry="8.9741688"
         rx="8.9742079"
         cy="-690.54138"
         cx="358.77551"
         id="path26152-9-5"
         style="fill:#2f2f2f;stroke-width:0" />
      <circle
         transform="matrix(0,1,-1,0,0,0)"
         r="6.0254917"
         cy="-737.42847"
         cx="406.83017"
         id="path26152-1-6-78"
         style="fill:#2f2f2f;stroke-width:0" />
      <g
         style="fill:#247e85;fill-opacity:1"
         transform="matrix(0.20249908,0,0,0.20249908,794.91735,343.81977)"
         id="g4258">
        <path
           id="path4260"
           d="m -458.03232,855.53152 c -5.58792,-2.76588 -6.79494,-5.66488 -7.25172,-17.41901 l -0.38551,-10.06419 -5.4734,-1.45191 c -10.30317,-2.73311 -8.84796,-3.28581 -13.68288,5.19982 -4.78925,8.40573 -7.18434,10.85678 -11.82943,12.10744 -4.37519,1.17829 -6.13952,0.62771 -16.24605,-5.0691 -10.39209,-5.85709 -13.64531,-8.75388 -14.91144,-13.27691 -1.23562,-4.41293 -0.28666,-7.55771 4.96729,-16.47398 l 4.14671,-7.03668 -5.49016,-5.54981 -5.49016,-5.54981 -7.41374,4.28037 c -9.20587,5.3147 -11.78286,6.08631 -16.20058,4.84946 -4.60054,-1.28822 -7.00152,-3.90792 -12.69438,-13.85428 -5.86483,-10.24756 -6.78703,-13.08691 -5.63745,-17.35734 1.24154,-4.61269 3.71184,-7.01441 12.10321,-11.76757 6.97482,-3.95137 7.5393,-4.44792 7.10922,-6.25496 -0.25702,-1.07943 -1.12095,-4.42563 -1.91972,-7.43565 l -1.45209,-5.47304 -10.06382,-0.39145 c -11.80661,-0.45866 -14.70689,-1.67522 -17.43614,-7.31303 -1.40564,-2.90213 -1.61915,-4.81595 -1.61915,-14.46 0,-11.7766 0.7216,-15.10218 4.06183,-18.65403 2.67383,-2.84634 6.51915,-3.68496 16.03635,-3.49735 l 8.76106,0.17299 0.86,-3.33884 c 0.47448,-1.83613 1.36709,-5.15195 1.98894,-7.36826 0.62275,-2.21632 1.13084,-4.20084 1.13084,-4.41036 0,-0.20955 -3.65459,-2.51273 -8.12146,-5.11862 -9.28209,-5.41468 -11.51001,-8.08538 -11.69891,-14.02532 -0.0989,-2.82922 0.50413,-4.87671 2.54146,-8.77266 11.5645,-22.11161 16.25783,-24.37984 31.66876,-15.3104 l 7.69046,4.52653 5.37932,-5.33772 c 2.95755,-2.93563 5.37841,-5.58314 5.37841,-5.88324 0,-0.3005 -1.74667,-3.57081 -3.88288,-7.26829 -2.13512,-3.69766 -4.27927,-8.0491 -4.7655,-9.67038 -1.23069,-4.10933 0.22735,-9.17751 3.52294,-12.24902 3.22745,-3.00744 19.02225,-11.98501 22.20551,-12.62185 6.87706,-1.3753 11.44096,1.92911 17.46173,12.64118 2.2883,4.07141 4.51253,7.27419 4.94243,7.11769 0.42505,-0.15618 3.83446,-1.08547 7.5649,-2.06424 l 6.78206,-1.7794 0.25701,-10.32066 c 0.23723,-9.81251 0.35585,-10.45671 2.36048,-13.07862 3.55958,-4.66148 5.95577,-5.32372 19.26711,-5.32372 12.21091,0 14.90849,0.50612 17.98976,3.37492 3.5883,3.34178 4.22477,5.69139 4.20304,15.53888 0,5.07978 0.28666,9.42607 0.6623,9.65841 0.37562,0.23229 3.28176,1.10288 6.45582,1.93445 3.17498,0.83133 6.30669,1.71691 6.96101,1.96776 0.86989,0.33413 2.21135,-1.37718 4.99877,-6.36983 4.71506,-8.44274 7.58865,-11.57739 11.76114,-12.82732 4.69443,-1.40652 7.52733,-0.57134 17.51714,5.15877 10.44843,5.9937 11.92517,7.24325 13.73626,11.6212 l 1.35029,3.26611 5.00282,-4.78593 5.0019,-4.78594 -2.21135,-4.50867 c -2.08468,-4.25202 -2.34464,-4.484 -4.55893,-4.07896 -5.90422,1.07993 -12.66566,1.3501 -14.62588,0.5842 -2.79645,-1.09279 -4.30192,-4.20876 -6.17027,-12.76785 -2.47425,-11.33933 -0.62275,-14.36297 10.20817,-16.70393 l 6.16437,-1.33181 0.25702,-5.30974 0.257,-5.30973 -3.12656,-0.92128 c -6.00125,-1.76873 -10.49004,-4.07068 -11.78194,-6.04157 -1.74076,-2.65726 -1.57666,-7.01257 0.50413,-13.34227 2.42473,-7.38097 3.55462,-9.33788 6.17119,-10.69108 3.0623,-1.58368 5.93791,-1.49472 11.87877,0.36772 2.72631,0.85506 5.19062,1.55818 5.47636,1.5637 0.6623,0.0197 5.34379,-7.55882 5.34379,-8.63568 0,-0.44185 -1.53415,-2.45971 -3.40843,-4.484 -4.37114,-4.71855 -5.19153,-6.35861 -5.19153,-10.37699 0,-3.0728 0.38551,-3.64501 6.01505,-9.01053 6.89087,-6.5637 9.16924,-7.76318 13.27949,-6.99213 2.19754,0.41221 4.03901,1.74826 7.58386,5.50158 l 4.68155,4.95716 4.62908,-2.33709 c 4.44423,-2.24357 4.61232,-2.43633 4.17929,-4.82571 -2.82811,-15.63499 -1.5727,-17.61822 12.97405,-20.49881 5.6879,-1.12659 7.21895,-1.1864 9.21287,-0.3608 3.62089,1.49985 5.2904,4.22588 6.75149,11.02156 l 1.32657,6.17652 5.27659,0 5.27568,0 1.73877,-5.27751 c 3.47747,-10.56165 6.47662,-12.32395 16.18069,-9.50873 14.39943,4.17764 16.22819,6.9056 12.61227,18.81052 -0.90943,2.99234 -1.52426,5.54061 -1.36808,5.66304 1.98581,1.55619 7.75471,5.16465 8.24315,5.15637 0.35587,-0.007 2.86568,-1.90223 5.58498,-4.21391 5.51189,-4.68597 8.39137,-5.65015 12.16636,-4.07325 2.73127,1.14122 12.49849,11.76905 13.38627,14.56513 1.18322,3.73006 -0.3361,7.01845 -5.48317,11.897 l -4.98993,4.72555 2.31408,4.58324 c 1.2722,2.52083 2.5641,4.58323 2.87064,4.58323 0.30645,0 3.29962,-0.58915 6.65153,-1.30956 5.68384,-1.2214 6.27704,-1.22208 8.81942,-0.009 3.76726,1.79621 5.2696,4.66535 6.96801,13.30655 2.23491,11.36511 0.84022,13.63114 -10.00951,16.31067 l -6.75444,1.6673 0,5.26978 0,5.26997 5.34784,1.62429 c 6.45784,1.96132 9.09522,3.90092 10.30998,7.58073 0.79079,2.40981 0.63264,3.66342 -1.20005,9.56562 -2.74011,8.79696 -3.82654,10.81075 -6.61305,12.25178 -3.11275,1.60947 -5.60283,1.49451 -11.955,-0.5506 l -5.39424,-1.73739 -1.36018,1.80362 c -0.75124,0.99196 -1.99575,2.98295 -2.77178,4.42453 l -1.41157,2.62099 4.02906,4.63294 c 6.82956,7.85174 6.85829,11.56469 0.13846,18.038 -7.28524,7.01993 -9.13867,8.18074 -13.06298,8.18074 -3.2917,0 -3.85011,-0.33411 -8.83415,-5.28009 l -5.32114,-5.28009 -3.96187,2.00753 c -2.17857,1.10415 -4.1804,2.36177 -4.44718,2.79461 -0.26688,0.43198 0.10881,3.56142 0.84023,6.95236 1.27516,5.93331 1.26923,6.27907 -0.15815,9.19648 -1.80699,3.70024 -3.82839,4.71211 -13.27065,6.64085 -11.37966,2.32457 -13.72632,0.75719 -16.38634,-10.93577 l -1.26825,-5.57467 -4.62815,0 c -2.54643,0 -4.89309,-0.089 -5.21529,-0.19572 -0.3262,-0.10774 -1.50548,2.44332 -2.62835,5.66838 -2.61565,7.51242 -5.11053,10.16765 -9.53911,10.15421 -3.00302,-0.009 -13.74418,-2.96159 -16.87865,-4.63957 -0.96873,-0.51897 -0.63264,0.65043 1.25539,4.41109 2.86365,5.69011 3.14939,8.29821 1.37302,12.54913 -1.71801,4.11136 -2.9546,5.244 -10.47015,9.5901 -3.68515,2.13089 -7.11033,4.14597 -7.61037,4.47848 -0.67219,0.44383 -0.3361,2.57975 1.23068,8.02719 l 2.14212,7.42295 6.58727,0.0692 c 11.76518,0.12059 12.93152,0.27677 15.63904,2.10161 1.45112,0.97763 3.43807,2.96491 4.41662,4.41588 1.66365,2.46892 1.77732,3.43421 1.77732,15.05726 0,14.17886 -0.57334,16.41138 -5.13041,19.8894 -2.85683,2.18133 -3.28084,2.26124 -13.29329,2.50776 l -10.34257,0.25404 -1.61917,6.45563 c -0.88964,3.55056 -1.80301,6.9542 -2.02834,7.56397 -0.27677,0.76016 1.61126,2.21485 6.01598,4.62706 11.15412,6.10766 14.57838,10.46094 13.65415,17.35678 -0.49425,3.68128 -9.8138,20.37914 -13.09262,23.45746 -1.23661,1.16149 -3.74443,2.51439 -5.57117,3.00633 -4.3078,1.16 -7.18728,0.3005 -15.94153,-4.7539 -3.69693,-2.1355 -6.96801,-3.88252 -7.26848,-3.88252 -0.29654,0 -2.93287,2.40577 -5.85101,5.34601 l -5.30421,5.34618 4.5442,7.75011 c 4.18924,7.14458 4.5442,8.12128 4.5442,12.50199 0,6.61949 -1.89394,8.84465 -12.91973,15.18558 -10.67286,6.13712 -13.47022,7.20827 -17.12978,6.5591 -5.25082,-0.93117 -7.62326,-3.1295 -12.63694,-11.70682 -2.61749,-4.47921 -4.99196,-8.12753 -5.27457,-8.10746 -0.28666,0.0198 -3.50527,0.84418 -7.16077,1.83169 l -6.64564,1.79522 -0.44483,9.70075 c -0.57333,12.45376 -2.01453,15.46064 -8.74135,18.27145 -2.13421,0.89162 -5.76394,1.20231 -14.04557,1.20191 -9.75452,-5e-4 -11.5842,-0.20759 -14.46958,-1.63597 z m 32.23214,-71.85076 c 27.15254,-7.17956 47.81889,-29.97127 52.11234,-57.47362 1.20496,-7.71955 0.38551,-22.13002 -1.66069,-29.31952 -5.69674,-19.99066 -20.20423,-37.00795 -38.69808,-45.39416 -15.4275,-6.99544 -35.34728,-8.16896 -50.7352,-2.98884 -33.83573,11.39033 -54.52233,46.24106 -47.51511,80.04734 3.23242,15.59467 8.44973,25.30408 19.57458,36.42985 10.87446,10.87446 20.64057,16.21567 35.64738,19.49541 9.01513,1.97071 22.06558,1.63813 31.27476,-0.79674 z m 105.48583,-152.37312 c 0.68207,-1.88161 1.2376,-3.8549 1.2376,-4.38495 0,-0.52983 -1.84754,-2.19054 -4.10528,-3.68975 l -4.10621,-2.72593 -5.41799,4.56998 c -4.6786,3.94621 -5.85488,4.56979 -8.62076,4.56979 -1.76249,0 -3.98267,-0.54564 -4.93452,-1.2124 -3.17608,-2.22515 -9.93844,-9.79465 -11.19978,-12.53807 l -1.2465,-2.7101 -4.51143,7.93808 -4.51254,7.93827 5.47028,5.47046 5.47028,5.47083 7.73888,-4.382 c 8.43297,-4.77452 11.2482,-5.65383 15.52931,-4.85038 3.36295,0.63067 8.37958,4.9428 9.84454,8.46151 l 1.05473,2.53262 0.53379,-3.51834 c 0.29655,-1.935 1.09328,-5.05787 1.77337,-6.93966 z m 51.19546,-27.10099 c 10.62444,-2.50464 22.31229,-10.84869 28.723,-20.50802 4.74783,-7.15249 7.47506,-16.21733 7.56306,-25.13469 0.0989,-8.87779 -1.02706,-14.09068 -4.64896,-21.74892 -5.53361,-11.70148 -16.02954,-20.82652 -28.65304,-24.90824 -12.65186,-4.09148 -28.61438,-2.28517 -39.25962,4.44221 -14.67228,9.27196 -23.0653,24.13866 -23.0653,40.85585 0,8.89048 1.07252,13.65046 4.87229,21.62187 5.78566,12.13617 17.6694,21.82624 31.09434,25.35195 5.66709,1.48838 17.12572,1.50331 23.3746,0.0297 z"
           sodipodi:nodetypes="cscssccccccccsccccccccscccccssccccsscsccscscccssccccscccccccccsscccccccccscsscccscscsccccsccccccscsscccscccsccscccccccsccccccsscscccccccccccccsccccccccscssccssccccccsscccccssccscccscccscccccccsccccccccccscssscc"
           style="fill:#247e85;fill-opacity:1"
           inkscape:connector-curvature="0" />
      </g>
      <ellipse
         style="fill:#2f2f2f;stroke-width:0"
         id="ellipse4262"
         cx="705.25427"
         cy="488.73611"
         rx="6.1303763"
         ry="6.1303496" />
      <circle
         style="fill:#2f2f2f;stroke-width:0"
         id="circle4264"
         cx="738.08093"
         cy="456.70706"
         r="4.1160774" />
      <text
         transform="translate(0,4)"
         sodipodi:linespacing="125%"
         id="text4716"
         style="font-style:normal;font-variant:normal;font-weight:normal;font-stretch:normal;font-size:25px;line-height:125%;font-family:sans-serif;-inkscape-font-specification:'sans-serif, Normal';text-align:start;letter-spacing:0px;word-spacing:0px;writing-mode:lr-tb;text-anchor:start;fill:#000000;fill-opacity:1;stroke:none;stroke-width:1px;stroke-linecap:butt;stroke-linejoin:miter;stroke-opacity:1"
         xml:space="preserve"><textPath
           id="textPath4722"
           xlink:href="#path4720"><tspan
   id="tspan4718">   It's time to be Free!</tspan></textPath></text>
      <path
         sodipodi:nodetypes="ccc"
         inkscape:connector-curvature="0"
         id="path5383"
         d="M 628.11954,397.27829 C 609.31637,249.99046 795.41522,256.79189 791.83614,372.88235 Z"
         style="fill:none;fill-rule:evenodd;stroke:none;stroke-width:1px;stroke-linecap:butt;stroke-linejoin:miter;stroke-opacity:1" />
    </g>
  </g>
</svg>
