<?xml version="1.0" encoding="UTF-8" standalone="no"?>
<!-- Generator: Adobe Illustrator 16.0.0, SVG Export Plug-In . SVG Version: 6.00 Build 0)  -->

<svg
   xmlns:dc="http://purl.org/dc/elements/1.1/"
   xmlns:cc="http://creativecommons.org/ns#"
   xmlns:rdf="http://www.w3.org/1999/02/22-rdf-syntax-ns#"
   xmlns:svg="http://www.w3.org/2000/svg"
   xmlns="http://www.w3.org/2000/svg"
   xmlns:sodipodi="http://sodipodi.sourceforge.net/DTD/sodipodi-0.dtd"
   xmlns:inkscape="http://www.inkscape.org/namespaces/inkscape"
   version="1.1"
   id="Capa_1"
   x="0px"
   y="0px"
   width="434.76376"
   height="437.59842"
   viewBox="0 0 434.76376 437.59842"
   enable-background="new 0 0 612 792"
   xml:space="preserve"
   inkscape:version="0.48.5 r10040"
   sodipodi:docname="UV.svg"><metadata
     id="metadata73"><rdf:RDF><cc:Work
         rdf:about=""><dc:format>image/svg+xml</dc:format><dc:type
           rdf:resource="http://purl.org/dc/dcmitype/StillImage" /></cc:Work></rdf:RDF></metadata><defs
     id="defs71" /><sodipodi:namedview
     pagecolor="#ffffff"
     bordercolor="#666666"
     borderopacity="1"
     objecttolerance="10"
     gridtolerance="10"
     guidetolerance="10"
     inkscape:pageopacity="0"
     inkscape:pageshadow="2"
     inkscape:window-width="640"
     inkscape:window-height="480"
     id="namedview69"
     showgrid="false"
     units="cm"
     inkscape:zoom="0.2979798"
     inkscape:cx="306"
     inkscape:cy="396"
     inkscape:window-x="0"
     inkscape:window-y="27"
     inkscape:window-maximized="0"
     inkscape:current-layer="Capa_1" /><g
     id="g3"
     transform="translate(-93.966101,-176.53841)"><g
       id="g5"><g
         id="g7"><path
           clip-rule="evenodd"
           d="m 319.164,349.008 c 0,0 30.399,-50.598 -12.943,-111.452 v -0.325 c -0.039,0.055 -0.075,0.108 -0.113,0.163 -0.039,-0.055 -0.075,-0.108 -0.114,-0.163 v 0.325 C 262.65,298.41 293.05,349.008 293.05,349.008 c -27.751,-47.264 -91.926,-19.296 -90.842,19.729 1.084,44.662 42.277,48.131 42.277,48.131 0,0 -16.58,-9.933 -17.913,-22.118 -1.334,-12.186 3.666,-23.519 12.666,-29.186 9,-5.667 25.666,-8.333 39.333,8 12.667,26.26 25.596,56.222 27.422,60.47 v 0.53 c 0,0 0.045,-0.104 0.114,-0.266 0.068,0.161 0.113,0.266 0.113,0.266 v -0.53 c 1.826,-4.248 14.755,-34.21 27.422,-60.47 13.667,-16.333 30.333,-13.667 39.333,-8 9,5.667 14,17 12.666,29.186 -1.333,12.186 -17.913,22.118 -17.913,22.118 0,0 41.193,-3.469 42.277,-48.131 1.085,-39.025 -63.09,-66.993 -90.841,-19.729 z"
           id="path9"
           inkscape:connector-curvature="0"
           style="fill:#2562ae;fill-rule:evenodd" /><g
           id="g11"><path
             d="m 249.681,387.857 c 0,0 0.242,0 0.677,0 -0.417,-0.035 -0.677,0 -0.677,0 z"
             id="path13"
             inkscape:connector-curvature="0"
             style="fill:#1eb463" /><path
             d="m 329.493,391.082 -23.468,53.832 -23.468,-53.832 c 0,0 -2.24,-3.225 -4.479,-3.225 -2.025,0 -23.612,0 -27.721,0 1.161,0.099 3.563,0.762 5.146,4.389 L 301.66,498.48 c 0,0 1.196,3.809 4.362,3.746 l 0,0 c 0.001,0 0.002,0 0.003,0 0.001,0 0.002,0 0.003,0 l 0,0 c 3.166,0.062 4.362,-3.746 4.362,-3.746 l 46.157,-106.234 c 1.582,-3.627 3.985,-4.29 5.146,-4.389 -4.108,0 -25.695,0 -27.721,0 -2.239,0 -4.479,3.225 -4.479,3.225 z"
             id="path15"
             inkscape:connector-curvature="0"
             style="fill:#1eb463" /><path
             d="m 361.693,387.857 c 0.435,0 0.677,0 0.677,0 0,0 -0.261,-0.035 -0.677,0 z"
             id="path17"
             inkscape:connector-curvature="0"
             style="fill:#1eb463" /></g><path
           d="m 302.174,504.605 c 0,0 -0.17,3.139 -9.846,-19.268 L 254.05,396.474 c 0,0 -2.049,-4.996 -1.829,-0.126 l 1.773,62.132 c 0,0 0.777,38.749 48.18,46.125 z"
           id="path19"
           inkscape:connector-curvature="0"
           style="fill:#2562ae" /><path
           d="m 309.975,504.605 c 0,0 0.17,3.139 9.846,-19.268 l 38.278,-88.863 c 0,0 2.049,-4.996 1.829,-0.126 l -1.773,62.132 c -10e-4,0 -0.777,38.749 -48.18,46.125 z"
           id="path21"
           inkscape:connector-curvature="0"
           style="fill:#2562ae" /></g><g
         id="g23"><path
           d="m 141.693,545.098 c 0,2.869 -0.86,5.162 -2.579,6.881 -1.719,1.721 -4.309,2.58 -7.77,2.58 -2.459,0 -4.69,-0.723 -6.693,-2.17 -2.004,-1.445 -3.005,-3.75 -3.005,-6.916 v -14.514 h 3.347 v 13.764 c 0,1.344 0.103,2.352 0.307,3.021 0.205,0.672 0.569,1.27 1.094,1.793 0.659,0.66 1.411,1.156 2.254,1.486 0.842,0.33 1.764,0.494 2.766,0.494 1.275,0 2.374,-0.182 3.296,-0.545 0.922,-0.365 1.645,-0.809 2.169,-1.332 0.592,-0.592 0.984,-1.316 1.178,-2.17 0.194,-0.854 0.291,-1.826 0.291,-2.92 v -13.592 h 3.347 v 14.14 z"
           id="path25"
           inkscape:connector-curvature="0" /><path
           d="m 149.756,541.238 h 0.068 c 0.592,-0.705 1.292,-1.264 2.101,-1.672 0.808,-0.41 1.633,-0.615 2.476,-0.615 1.457,0 2.692,0.506 3.705,1.52 1.014,1.014 1.521,2.566 1.521,4.662 v 9.426 h -3.04 v -9.494 c 0,-1.115 -0.268,-2.01 -0.803,-2.682 -0.535,-0.672 -1.27,-1.008 -2.202,-1.008 -0.273,0 -0.541,0.029 -0.803,0.086 -0.262,0.057 -0.519,0.143 -0.769,0.256 -0.364,0.184 -0.729,0.428 -1.093,0.734 -0.364,0.306 -0.751,0.689 -1.161,1.145 v 10.963 h -3.039 v -15.334 h 3.039 v 2.013 z"
           id="path27"
           inkscape:connector-curvature="0" /><path
           d="m 167.979,534.58 c 0,0.523 -0.177,0.961 -0.529,1.314 -0.354,0.354 -0.78,0.529 -1.281,0.529 -0.501,0 -0.928,-0.176 -1.28,-0.529 -0.354,-0.354 -0.529,-0.779 -0.529,-1.281 0,-0.5 0.176,-0.928 0.529,-1.281 0.353,-0.352 0.779,-0.529 1.28,-0.529 0.501,0 0.928,0.178 1.281,0.529 0.353,0.354 0.529,0.781 0.529,1.281 v -0.033 z m -0.308,19.979 h -3.04 v -15.334 h 3.04 v 15.334 z"
           id="path29"
           inkscape:connector-curvature="0" /><path
           d="m 171.216,538.934 h 3.312 l 4.132,9.426 4.03,-9.426 h 3.244 l -6.762,15.641 h -1.024 l -6.932,-15.641 z"
           id="path31"
           inkscape:connector-curvature="0" /><path
           d="m 201.382,549.965 v 2.938 c -0.137,0.113 -0.279,0.217 -0.427,0.307 -0.148,0.092 -0.291,0.172 -0.428,0.24 -0.773,0.455 -1.57,0.779 -2.391,0.973 -0.819,0.193 -1.775,0.291 -2.868,0.291 -2.391,0 -4.229,-0.826 -5.516,-2.477 -1.287,-1.651 -1.93,-3.535 -1.93,-5.652 0,-2.322 0.666,-4.201 1.998,-5.635 1.332,-1.436 3.057,-2.152 5.174,-2.152 2.026,0 3.643,0.695 4.85,2.084 1.207,1.389 1.811,3.506 1.811,6.352 h -10.792 c 0.25,1.537 0.808,2.689 1.673,3.459 0.865,0.768 2.026,1.152 3.483,1.152 0.684,0 1.36,-0.092 2.032,-0.273 0.671,-0.182 1.337,-0.443 1.998,-0.785 0.228,-0.113 0.449,-0.24 0.666,-0.377 0.216,-0.137 0.438,-0.271 0.666,-0.408 v -0.037 z m -2.733,-4.781 c -0.046,-1.139 -0.388,-2.049 -1.024,-2.732 -0.638,-0.682 -1.491,-1.023 -2.562,-1.023 -1.161,0 -2.089,0.326 -2.783,0.98 -0.695,0.654 -1.145,1.58 -1.35,2.775 h 7.719 z"
           id="path33"
           inkscape:connector-curvature="0" /><path
           d="m 209.354,539.223 v 3.518 h 0.068 c 0.774,-1.32 1.531,-2.281 2.271,-2.885 0.739,-0.604 1.463,-0.906 2.168,-0.906 0.251,0 0.496,0.023 0.734,0.068 0.239,0.047 0.483,0.115 0.734,0.205 0.342,0.137 0.694,0.33 1.059,0.58 0.364,0.252 0.74,0.559 1.127,0.924 l -1.604,2.594 c -0.16,-0.135 -0.33,-0.277 -0.513,-0.426 -0.183,-0.149 -0.376,-0.279 -0.58,-0.393 -0.319,-0.205 -0.632,-0.365 -0.939,-0.479 -0.307,-0.114 -0.575,-0.17 -0.803,-0.17 -1.048,0 -1.93,0.455 -2.646,1.365 -0.718,0.91 -1.076,2.027 -1.076,3.348 v 7.99 h -3.039 v -15.334 h 3.039 z"
           id="path35"
           inkscape:connector-curvature="0" /><path
           d="m 229.295,540.025 v 3.006 c -0.842,-0.547 -1.65,-0.945 -2.424,-1.195 -0.774,-0.252 -1.446,-0.377 -2.016,-0.377 -0.614,0 -1.104,0.131 -1.469,0.393 -0.365,0.262 -0.546,0.598 -0.546,1.008 0,0.342 0.284,0.74 0.854,1.195 0.57,0.455 1.525,1.082 2.869,1.879 0.683,0.455 1.258,0.871 1.725,1.246 0.466,0.375 0.825,0.746 1.075,1.109 0.228,0.32 0.394,0.633 0.496,0.939 0.102,0.309 0.153,0.645 0.153,1.008 0,1.344 -0.479,2.424 -1.435,3.244 -0.956,0.82 -2.163,1.23 -3.62,1.23 -0.41,0 -0.809,-0.018 -1.195,-0.053 -0.388,-0.033 -0.774,-0.096 -1.161,-0.188 -0.456,-0.09 -0.928,-0.232 -1.417,-0.426 -0.49,-0.193 -1.008,-0.428 -1.554,-0.701 v -3.312 c 1.001,0.707 1.935,1.225 2.8,1.555 0.865,0.33 1.605,0.494 2.22,0.494 0.615,-0.045 1.145,-0.209 1.589,-0.494 0.443,-0.285 0.665,-0.701 0.665,-1.248 0,-0.271 -0.102,-0.523 -0.307,-0.75 -0.205,-0.229 -0.467,-0.467 -0.786,-0.717 -0.341,-0.229 -0.729,-0.461 -1.161,-0.701 -0.433,-0.238 -0.876,-0.494 -1.332,-0.768 -0.888,-0.523 -1.707,-1.139 -2.458,-1.846 -0.752,-0.705 -1.128,-1.57 -1.128,-2.594 0,-1.299 0.462,-2.316 1.384,-3.057 0.922,-0.741 2.146,-1.111 3.671,-1.111 0.729,0 1.463,0.104 2.203,0.309 0.739,0.205 1.508,0.523 2.305,0.955 v -0.032 z"
           id="path37"
           inkscape:connector-curvature="0" /><path
           d="m 238.122,534.58 c 0,0.523 -0.177,0.961 -0.529,1.314 -0.354,0.354 -0.78,0.529 -1.28,0.529 -0.501,0 -0.929,-0.176 -1.281,-0.529 -0.354,-0.354 -0.529,-0.779 -0.529,-1.281 0,-0.5 0.176,-0.928 0.529,-1.281 0.353,-0.352 0.78,-0.529 1.281,-0.529 0.5,0 0.927,0.178 1.28,0.529 0.353,0.354 0.529,0.781 0.529,1.281 v -0.033 z m -0.308,19.979 h -3.039 v -15.334 h 3.039 v 15.334 z"
           id="path39"
           inkscape:connector-curvature="0" /><path
           d="m 256.471,554.348 h -6.454 c -2.277,0 -4.088,-0.717 -5.431,-2.152 -1.344,-1.434 -2.015,-3.381 -2.015,-5.84 0,-2.23 0.717,-4.059 2.151,-5.48 1.435,-1.424 3.267,-2.135 5.498,-2.135 0.114,0 0.217,0 0.308,0 0.091,0 0.193,0.012 0.308,0.033 0.409,0.023 0.819,0.08 1.229,0.172 0.409,0.09 0.865,0.227 1.366,0.41 v -8.301 h 3.039 v 23.293 z m -3.039,-12.33 c -0.251,-0.09 -0.495,-0.17 -0.734,-0.238 -0.239,-0.068 -0.461,-0.125 -0.666,-0.17 -0.228,-0.047 -0.461,-0.08 -0.7,-0.104 -0.239,-0.021 -0.484,-0.033 -0.734,-0.033 -1.457,0 -2.642,0.482 -3.552,1.445 -0.911,0.965 -1.366,2.254 -1.366,3.863 0,1.432 0.342,2.621 1.024,3.574 0.684,0.953 1.901,1.43 3.654,1.43 h 3.074 v -9.767 z"
           id="path41"
           inkscape:connector-curvature="0" /><path
           d="m 274.698,551.307 v 1.846 c -0.478,0.34 -0.877,0.592 -1.195,0.75 -0.318,0.16 -0.626,0.273 -0.922,0.342 -0.137,0.045 -0.268,0.074 -0.393,0.086 -0.126,0.012 -0.268,0.018 -0.427,0.018 -0.661,0 -1.179,-0.121 -1.554,-0.359 -0.376,-0.238 -0.632,-0.631 -0.769,-1.178 -0.661,0.523 -1.338,0.91 -2.032,1.16 -0.695,0.25 -1.396,0.377 -2.101,0.377 -1.115,0 -2.021,-0.377 -2.715,-1.127 -0.695,-0.752 -1.042,-1.617 -1.042,-2.596 0,-1.367 0.467,-2.369 1.4,-3.006 0.933,-0.637 1.958,-1.162 3.074,-1.57 0.136,-0.047 0.267,-0.092 0.393,-0.137 0.125,-0.047 0.244,-0.092 0.358,-0.137 l 2.698,-0.99 v -0.82 c 0,-0.934 -0.229,-1.611 -0.684,-2.031 -0.455,-0.422 -1.149,-0.633 -2.083,-0.633 -0.114,0 -0.222,0.006 -0.324,0.018 -0.102,0.012 -0.2,0.018 -0.291,0.018 -0.751,0.09 -1.485,0.34 -2.202,0.75 -0.718,0.41 -1.396,0.99 -2.032,1.742 v -3.348 c 0.592,-0.682 1.309,-1.195 2.151,-1.535 0.842,-0.342 1.821,-0.514 2.938,-0.514 1.548,0 2.862,0.404 3.944,1.213 1.081,0.809 1.622,2.09 1.622,3.842 v 7.855 c 0,0.318 0.052,0.535 0.153,0.648 0.103,0.115 0.245,0.172 0.428,0.172 0.158,0 0.381,-0.074 0.666,-0.223 0.284,-0.148 0.598,-0.348 0.938,-0.598 v -0.035 z m -5.224,-0.375 v -4.475 c -1.298,0.457 -2.431,0.945 -3.398,1.469 -0.968,0.525 -1.451,1.242 -1.451,2.152 0,0.637 0.205,1.156 0.614,1.555 0.41,0.398 0.934,0.598 1.571,0.598 0.478,0 0.939,-0.115 1.383,-0.342 0.444,-0.229 0.871,-0.535 1.281,-0.922 v -0.035 z"
           id="path43"
           inkscape:connector-curvature="0" /><path
           d="m 291.823,554.348 h -6.454 c -2.277,0 -4.088,-0.717 -5.431,-2.152 -1.344,-1.434 -2.015,-3.381 -2.015,-5.84 0,-2.23 0.717,-4.059 2.151,-5.48 1.435,-1.424 3.267,-2.135 5.498,-2.135 0.114,0 0.217,0 0.308,0 0.091,0 0.193,0.012 0.308,0.033 0.409,0.023 0.819,0.08 1.229,0.172 0.409,0.09 0.865,0.227 1.366,0.41 v -8.301 h 3.039 v 23.293 z m -3.039,-12.33 c -0.251,-0.09 -0.495,-0.17 -0.734,-0.238 -0.239,-0.068 -0.461,-0.125 -0.666,-0.17 -0.228,-0.047 -0.461,-0.08 -0.7,-0.104 -0.239,-0.021 -0.484,-0.033 -0.734,-0.033 -1.457,0 -2.642,0.482 -3.552,1.445 -0.911,0.965 -1.366,2.254 -1.366,3.863 0,1.432 0.342,2.621 1.024,3.574 0.684,0.953 1.901,1.43 3.654,1.43 h 3.074 v -9.767 z"
           id="path45"
           inkscape:connector-curvature="0" /><path
           d="m 319.969,554.77 h -0.683 l -10.075,-23.498 h 3.347 l 7.001,16.359 6.968,-16.359 h 3.312 l -9.87,23.498 z"
           id="path47"
           inkscape:connector-curvature="0" /><path
           d="m 342.192,549.6 v 2.938 c -0.136,0.113 -0.278,0.217 -0.427,0.307 -0.148,0.092 -0.29,0.172 -0.427,0.24 -0.774,0.455 -1.57,0.779 -2.391,0.973 -0.819,0.193 -1.775,0.291 -2.868,0.291 -2.391,0 -4.229,-0.826 -5.516,-2.477 -1.287,-1.65 -1.93,-3.535 -1.93,-5.652 0,-2.322 0.666,-4.201 1.998,-5.635 1.332,-1.436 3.057,-2.152 5.174,-2.152 2.026,0 3.643,0.695 4.85,2.084 1.206,1.389 1.81,3.506 1.81,6.352 h -10.792 c 0.251,1.537 0.809,2.689 1.674,3.459 0.865,0.768 2.026,1.152 3.483,1.152 0.683,0 1.36,-0.092 2.032,-0.273 0.671,-0.182 1.337,-0.443 1.998,-0.785 0.227,-0.113 0.449,-0.24 0.666,-0.377 0.216,-0.137 0.438,-0.271 0.665,-0.408 V 549.6 z m -2.731,-4.782 c -0.046,-1.139 -0.388,-2.049 -1.024,-2.732 -0.638,-0.682 -1.492,-1.023 -2.562,-1.023 -1.161,0 -2.089,0.326 -2.783,0.98 -0.695,0.654 -1.145,1.58 -1.35,2.775 h 7.719 z"
           id="path49"
           inkscape:connector-curvature="0" /><path
           d="m 350.482,538.859 v 3.518 h 0.068 c 0.774,-1.32 1.531,-2.283 2.271,-2.887 0.739,-0.604 1.463,-0.904 2.169,-0.904 0.25,0 0.495,0.023 0.734,0.068 0.238,0.045 0.483,0.113 0.733,0.205 0.342,0.137 0.694,0.33 1.06,0.58 0.363,0.25 0.739,0.559 1.127,0.922 l -1.605,2.596 c -0.159,-0.137 -0.33,-0.279 -0.513,-0.428 -0.182,-0.146 -0.375,-0.277 -0.58,-0.393 -0.319,-0.205 -0.632,-0.363 -0.939,-0.479 -0.308,-0.113 -0.575,-0.17 -0.803,-0.17 -1.047,0 -1.93,0.455 -2.646,1.365 -0.717,0.912 -1.076,2.027 -1.076,3.348 v 7.992 h -3.039 v -15.334 h 3.039 z"
           id="path51"
           inkscape:connector-curvature="0" /><path
           d="m 373.792,551.307 v 1.844 c -0.478,0.342 -0.877,0.592 -1.195,0.752 -0.319,0.158 -0.626,0.273 -0.922,0.342 -0.137,0.045 -0.268,0.072 -0.393,0.084 -0.126,0.012 -0.268,0.018 -0.427,0.018 -0.661,0 -1.179,-0.119 -1.554,-0.357 -0.376,-0.24 -0.632,-0.633 -0.769,-1.18 -0.661,0.525 -1.338,0.912 -2.032,1.162 -0.695,0.25 -1.396,0.375 -2.101,0.375 -1.115,0 -2.021,-0.375 -2.715,-1.127 -0.695,-0.752 -1.042,-1.615 -1.042,-2.596 0,-1.365 0.467,-2.367 1.4,-3.006 0.934,-0.637 1.958,-1.16 3.074,-1.57 0.136,-0.045 0.267,-0.09 0.393,-0.137 0.125,-0.045 0.244,-0.09 0.358,-0.137 l 2.698,-0.99 v -0.82 c 0,-0.932 -0.229,-1.609 -0.684,-2.031 -0.455,-0.422 -1.149,-0.631 -2.083,-0.631 -0.114,0 -0.222,0.006 -0.324,0.016 -0.103,0.012 -0.2,0.018 -0.291,0.018 -0.751,0.092 -1.485,0.342 -2.202,0.752 -0.718,0.41 -1.396,0.99 -2.032,1.742 v -3.348 c 0.592,-0.684 1.309,-1.195 2.151,-1.537 0.842,-0.342 1.821,-0.512 2.938,-0.512 1.548,0 2.862,0.404 3.944,1.213 1.081,0.807 1.622,2.088 1.622,3.842 v 7.854 c 0,0.32 0.052,0.535 0.153,0.65 0.103,0.113 0.245,0.17 0.428,0.17 0.158,0 0.381,-0.074 0.666,-0.223 0.284,-0.146 0.598,-0.346 0.938,-0.598 v -0.034 z m -5.225,-0.375 v -4.475 c -1.298,0.455 -2.431,0.945 -3.398,1.469 -0.967,0.524 -1.451,1.24 -1.451,2.15 0,0.639 0.205,1.156 0.614,1.555 0.41,0.398 0.934,0.598 1.571,0.598 0.478,0 0.939,-0.113 1.383,-0.342 0.444,-0.227 0.871,-0.535 1.281,-0.922 v -0.033 z"
           id="path53"
           inkscape:connector-curvature="0" /><path
           d="m 389.022,539.457 v 3.244 c -0.684,-0.432 -1.287,-0.756 -1.811,-0.973 -0.524,-0.217 -1.036,-0.359 -1.536,-0.428 -0.137,-0.021 -0.279,-0.039 -0.428,-0.051 -0.147,-0.012 -0.302,-0.018 -0.461,-0.018 -1.389,0 -2.516,0.479 -3.381,1.436 -0.865,0.955 -1.298,2.207 -1.298,3.756 0,1.594 0.473,2.84 1.418,3.74 0.944,0.898 2.202,1.348 3.773,1.348 0.113,0 0.228,0 0.342,0 0.113,0 0.238,-0.01 0.375,-0.033 0.523,-0.045 1.053,-0.154 1.588,-0.324 0.535,-0.172 1.122,-0.393 1.759,-0.666 v 2.971 c -0.364,0.205 -0.836,0.371 -1.417,0.496 -0.58,0.123 -1.178,0.232 -1.793,0.324 -0.251,0.021 -0.483,0.039 -0.7,0.051 -0.217,0.012 -0.438,0.018 -0.666,0.018 -2.276,0 -4.144,-0.713 -5.601,-2.135 -1.457,-1.424 -2.186,-3.262 -2.186,-5.516 0,-2.527 0.683,-4.537 2.049,-6.027 1.366,-1.492 3.21,-2.238 5.532,-2.238 0.615,0 1.167,0.047 1.657,0.137 0.489,0.092 0.961,0.217 1.417,0.377 0.228,0.068 0.455,0.148 0.683,0.238 0.228,0.092 0.455,0.193 0.684,0.307 v -0.034 z"
           id="path55"
           inkscape:connector-curvature="0" /><path
           d="m 396.761,538.857 v 3.518 h 0.068 c 0.774,-1.32 1.531,-2.281 2.271,-2.885 0.739,-0.604 1.463,-0.906 2.169,-0.906 0.25,0 0.495,0.023 0.734,0.068 0.238,0.047 0.483,0.115 0.733,0.205 0.342,0.137 0.694,0.33 1.06,0.58 0.363,0.252 0.739,0.559 1.127,0.924 l -1.605,2.594 c -0.159,-0.135 -0.33,-0.277 -0.513,-0.426 -0.182,-0.148 -0.375,-0.279 -0.58,-0.393 -0.319,-0.205 -0.632,-0.365 -0.939,-0.479 -0.307,-0.114 -0.575,-0.17 -0.803,-0.17 -1.047,0 -1.93,0.455 -2.646,1.365 -0.716,0.91 -1.076,2.027 -1.076,3.348 v 7.99 h -3.039 v -15.334 h 3.039 z"
           id="path57"
           inkscape:connector-curvature="0" /><path
           d="m 417.379,554.039 v -1.945 c -0.41,0.477 -0.865,0.881 -1.366,1.211 -0.501,0.33 -1.013,0.576 -1.537,0.734 -0.272,0.092 -0.552,0.166 -0.836,0.223 -0.285,0.057 -0.553,0.086 -0.803,0.086 -1.549,0 -2.817,-0.529 -3.808,-1.588 -0.991,-1.061 -1.486,-2.557 -1.486,-4.492 v -9.562 h 3.04 v 9.734 c 0,1.092 0.261,1.936 0.785,2.527 0.523,0.592 1.309,0.887 2.356,0.887 0.684,0 1.337,-0.182 1.964,-0.547 0.626,-0.363 1.189,-0.898 1.69,-1.604 v -10.998 h 3.04 v 15.334 h -3.039 z"
           id="path59"
           inkscape:connector-curvature="0" /><path
           d="m 429.714,551.324 h 8.196 v 2.732 h -13.455 l 8.128,-12.602 h -7.787 v -2.732 h 13.08 l -8.162,12.602 z"
           id="path61"
           inkscape:connector-curvature="0" /><path
           d="m 455.293,551.305 v 1.846 c -0.478,0.34 -0.877,0.592 -1.195,0.75 -0.318,0.16 -0.626,0.273 -0.922,0.342 -0.137,0.045 -0.268,0.074 -0.393,0.086 -0.126,0.012 -0.268,0.018 -0.427,0.018 -0.661,0 -1.179,-0.121 -1.554,-0.359 -0.376,-0.238 -0.632,-0.631 -0.769,-1.178 -0.661,0.523 -1.338,0.91 -2.032,1.16 -0.695,0.25 -1.396,0.377 -2.101,0.377 -1.115,0 -2.021,-0.377 -2.715,-1.127 -0.695,-0.752 -1.042,-1.617 -1.042,-2.596 0,-1.367 0.467,-2.369 1.4,-3.006 0.933,-0.637 1.958,-1.162 3.074,-1.57 0.136,-0.047 0.267,-0.092 0.393,-0.137 0.125,-0.047 0.244,-0.092 0.358,-0.137 l 2.698,-0.99 v -0.82 c 0,-0.934 -0.229,-1.611 -0.684,-2.031 -0.455,-0.422 -1.149,-0.633 -2.083,-0.633 -0.114,0 -0.222,0.006 -0.324,0.018 -0.102,0.012 -0.2,0.018 -0.291,0.018 -0.751,0.09 -1.485,0.34 -2.202,0.75 -0.718,0.41 -1.396,0.99 -2.032,1.742 v -3.348 c 0.592,-0.682 1.309,-1.195 2.151,-1.535 0.842,-0.342 1.821,-0.514 2.938,-0.514 1.548,0 2.862,0.404 3.944,1.213 1.081,0.809 1.622,2.09 1.622,3.842 v 7.855 c 0,0.318 0.052,0.535 0.153,0.648 0.103,0.115 0.245,0.172 0.428,0.172 0.158,0 0.381,-0.074 0.666,-0.223 0.284,-0.148 0.598,-0.348 0.938,-0.598 v -0.035 z m -5.225,-0.375 v -4.475 c -1.298,0.457 -2.431,0.945 -3.398,1.469 -0.968,0.525 -1.451,1.242 -1.451,2.152 0,0.637 0.205,1.156 0.614,1.555 0.41,0.398 0.934,0.598 1.571,0.598 0.478,0 0.939,-0.115 1.383,-0.342 0.444,-0.229 0.871,-0.535 1.281,-0.922 v -0.035 z"
           id="path63"
           inkscape:connector-curvature="0" /><path
           d="m 462.616,541.01 h 0.068 c 0.592,-0.705 1.292,-1.264 2.1,-1.672 0.809,-0.41 1.634,-0.615 2.477,-0.615 1.457,0 2.692,0.506 3.705,1.52 1.013,1.014 1.52,2.566 1.52,4.662 v 9.426 h -3.039 v -9.494 c 0,-1.115 -0.268,-2.01 -0.803,-2.682 -0.535,-0.672 -1.27,-1.008 -2.202,-1.008 -0.273,0 -0.542,0.029 -0.803,0.086 -0.263,0.057 -0.519,0.143 -0.769,0.256 -0.364,0.184 -0.729,0.428 -1.093,0.734 -0.364,0.307 -0.752,0.689 -1.161,1.145 v 10.963 h -3.04 v -15.334 h 3.04 v 2.013 z"
           id="path65"
           inkscape:connector-curvature="0" /><path
           d="m 490.354,551.305 v 1.846 c -0.478,0.34 -0.877,0.592 -1.195,0.75 -0.319,0.16 -0.626,0.273 -0.922,0.342 -0.137,0.045 -0.268,0.074 -0.393,0.086 -0.126,0.012 -0.268,0.018 -0.427,0.018 -0.661,0 -1.179,-0.121 -1.554,-0.359 -0.376,-0.238 -0.632,-0.631 -0.769,-1.178 -0.661,0.523 -1.338,0.91 -2.032,1.16 -0.695,0.25 -1.396,0.377 -2.101,0.377 -1.115,0 -2.021,-0.377 -2.715,-1.127 -0.695,-0.752 -1.042,-1.617 -1.042,-2.596 0,-1.367 0.467,-2.369 1.4,-3.006 0.933,-0.637 1.958,-1.162 3.074,-1.57 0.136,-0.047 0.267,-0.092 0.393,-0.137 0.125,-0.047 0.244,-0.092 0.358,-0.137 l 2.698,-0.99 v -0.82 c 0,-0.934 -0.229,-1.611 -0.684,-2.031 -0.455,-0.422 -1.149,-0.633 -2.083,-0.633 -0.114,0 -0.222,0.006 -0.324,0.018 -0.102,0.012 -0.2,0.018 -0.291,0.018 -0.751,0.09 -1.485,0.34 -2.202,0.75 -0.718,0.41 -1.396,0.99 -2.032,1.742 v -3.348 c 0.592,-0.682 1.309,-1.195 2.151,-1.535 0.842,-0.342 1.821,-0.514 2.938,-0.514 1.548,0 2.862,0.404 3.944,1.213 1.081,0.809 1.622,2.09 1.622,3.842 v 7.855 c 0,0.318 0.052,0.535 0.153,0.648 0.103,0.115 0.245,0.172 0.428,0.172 0.158,0 0.381,-0.074 0.666,-0.223 0.284,-0.148 0.598,-0.348 0.938,-0.598 v -0.035 z m -5.225,-0.375 v -4.475 c -1.298,0.457 -2.431,0.945 -3.398,1.469 -0.968,0.525 -1.451,1.242 -1.451,2.152 0,0.637 0.205,1.156 0.614,1.555 0.41,0.398 0.934,0.598 1.571,0.598 0.478,0 0.939,-0.115 1.383,-0.342 0.444,-0.229 0.871,-0.535 1.281,-0.922 v -0.035 z"
           id="path67"
           inkscape:connector-curvature="0" /></g></g></g></svg>